<svg width="24" height="24" viewBox="0 0 24 24" fill="none" xmlns="http://www.w3.org/2000/svg">
<path d="M6.7 14.7C6.51667 14.5167 6.425 14.2833 6.425 14C6.425 13.7167 6.51667 13.4833 6.7 13.3L11.3 8.7C11.4 8.6 11.5083 8.529 11.625 8.487C11.7417 8.44567 11.8667 8.425 12 8.425C12.1333 8.425 12.2627 8.45 12.388 8.5C12.5127 8.55 12.6167 8.61667 12.7 8.7L17.3 13.3C17.4833 13.4833 17.575 13.7167 17.575 14C17.575 14.2833 17.4833 14.5167 17.3 14.7C17.1167 14.8833 16.8833 14.975 16.6 14.975C16.3167 14.975 16.0833 14.8833 15.9 14.7L12 10.8L8.1 14.7C7.91667 14.8833 7.68334 14.975 7.4 14.975C7.11667 14.975 6.88334 14.8833 6.7 14.7Z" fill="black"/>
</svg>
