<svg width="48" height="48" viewBox="0 0 48 48" fill="none" xmlns="http://www.w3.org/2000/svg">
<path d="M10 44C8.9 44 7.958 43.6087 7.174 42.826C6.39133 42.042 6 41.1 6 40V12C6 10.9 6.39133 9.95867 7.174 9.176C7.958 8.392 8.9 8 10 8H12V4H16V8H32V4H36V8H38C39.1 8 40.042 8.392 40.826 9.176C41.6087 9.95867 42 10.9 42 12V40C42 41.1 41.6087 42.042 40.826 42.826C40.042 43.6087 39.1 44 38 44H10ZM10 40H38V20H10V40ZM10 16H38V12H10V16ZM24 28C23.4333 28 22.9587 27.808 22.576 27.424C22.192 27.0413 22 26.5667 22 26C22 25.4333 22.192 24.958 22.576 24.574C22.9587 24.1913 23.4333 24 24 24C24.5667 24 25.042 24.1913 25.426 24.574C25.8087 24.958 26 25.4333 26 26C26 26.5667 25.8087 27.0413 25.426 27.424C25.042 27.808 24.5667 28 24 28ZM16 28C15.4333 28 14.958 27.808 14.574 27.424C14.1913 27.0413 14 26.5667 14 26C14 25.4333 14.1913 24.958 14.574 24.574C14.958 24.1913 15.4333 24 16 24C16.5667 24 17.042 24.1913 17.426 24.574C17.8087 24.958 18 25.4333 18 26C18 26.5667 17.8087 27.0413 17.426 27.424C17.042 27.808 16.5667 28 16 28ZM32 28C31.4333 28 30.9587 27.808 30.576 27.424C30.192 27.0413 30 26.5667 30 26C30 25.4333 30.192 24.958 30.576 24.574C30.9587 24.1913 31.4333 24 32 24C32.5667 24 33.0413 24.1913 33.424 24.574C33.808 24.958 34 25.4333 34 26C34 26.5667 33.808 27.0413 33.424 27.424C33.0413 27.808 32.5667 28 32 28ZM24 36C23.4333 36 22.9587 35.808 22.576 35.424C22.192 35.0413 22 34.5667 22 34C22 33.4333 22.192 32.9587 22.576 32.576C22.9587 32.192 23.4333 32 24 32C24.5667 32 25.042 32.192 25.426 32.576C25.8087 32.9587 26 33.4333 26 34C26 34.5667 25.8087 35.0413 25.426 35.424C25.042 35.808 24.5667 36 24 36ZM16 36C15.4333 36 14.958 35.808 14.574 35.424C14.1913 35.0413 14 34.5667 14 34C14 33.4333 14.1913 32.9587 14.574 32.576C14.958 32.192 15.4333 32 16 32C16.5667 32 17.042 32.192 17.426 32.576C17.8087 32.9587 18 33.4333 18 34C18 34.5667 17.8087 35.0413 17.426 35.424C17.042 35.808 16.5667 36 16 36ZM32 36C31.4333 36 30.9587 35.808 30.576 35.424C30.192 35.0413 30 34.5667 30 34C30 33.4333 30.192 32.9587 30.576 32.576C30.9587 32.192 31.4333 32 32 32C32.5667 32 33.0413 32.192 33.424 32.576C33.808 32.9587 34 33.4333 34 34C34 34.5667 33.808 35.0413 33.424 35.424C33.0413 35.808 32.5667 36 32 36Z" fill="#303030"/>
</svg>
