<svg width="213" height="168" viewBox="0 0 213 168" fill="none" xmlns="http://www.w3.org/2000/svg">
<circle cx="107" cy="88" r="77" fill="#888888"/>
<g clip-path="url(#clip0_772_238)">
<path d="M58.9712 164.296L62.775 163.864L62.9202 148.994L57.3063 149.631L58.9712 164.296Z" fill="#FFB8B8"/>
<path d="M70.5112 166.563L58.5569 167.919L58.0328 163.302L65.3684 162.47C66.5934 162.331 67.8234 162.684 68.7879 163.452C69.7523 164.219 70.3722 165.339 70.5112 166.563Z" fill="#2F2E41"/>
<path d="M19.8532 164.058H23.6813L25.5023 149.299L19.8525 149.299L19.8532 164.058Z" fill="#FFB8B8"/>
<path d="M31.0641 167.611L19.033 167.612L19.0328 162.965L26.4155 162.965C27.6483 162.965 28.8307 163.454 29.7025 164.326C30.5742 165.197 31.064 166.379 31.0641 167.611Z" fill="#2F2E41"/>
<path d="M47.3187 98.0548L49.5044 105.162L61.3697 130.828L64.4922 155.173L57.3106 155.485L52.9391 133.012L37.9514 116.782L24.8371 159.231L18.9044 158.606C18.9044 158.606 23.9003 103.673 30.7697 98.0548C30.7697 98.0548 42.0105 92.7487 47.3187 98.0548Z" fill="#2F2E41"/>
<path d="M37.6232 67.3901C41.8587 67.3901 45.2922 63.9578 45.2922 59.724C45.2922 55.4902 41.8587 52.058 37.6232 52.058C33.3877 52.058 29.9541 55.4902 29.9541 59.724C29.9541 63.9578 33.3877 67.3901 37.6232 67.3901Z" fill="#FFB8B8"/>
<path d="M48.0993 99.4594C48.0993 99.4594 49.036 67.6229 35.9217 69.8078C22.8075 71.9926 28.2717 102.737 28.2717 102.737C28.2717 102.737 31.082 108.355 37.9513 102.112C44.8207 95.87 48.0993 99.4594 48.0993 99.4594Z" fill="#CCCCCC"/>
<path opacity="0.2" d="M29.9893 83.2292L33.0752 95.0533L37.7766 99.7532L31.2382 97.5868L29.9893 83.2292Z" fill="black"/>
<path d="M48.1962 112.924C47.7647 112.767 47.3727 112.518 47.0479 112.194C46.7231 111.87 46.4733 111.478 46.3162 111.047C46.1591 110.616 46.0985 110.156 46.1386 109.699C46.1788 109.242 46.3187 108.799 46.5485 108.402L39.2548 99.9608L45.0046 99.2127L51.0493 107.343C51.6913 107.773 52.153 108.424 52.3471 109.171C52.5413 109.919 52.4542 110.712 52.1026 111.4C51.7509 112.088 51.159 112.623 50.439 112.904C49.7191 113.185 48.9211 113.192 48.1962 112.924Z" fill="#FFB8B8"/>
<path d="M39.3159 76.2923L40.1371 92.4366L49.8167 104.921L45.7575 108.043L32.6432 94.9336C32.6432 94.9336 27.9595 79.0153 31.3942 74.3335C32.6822 72.5778 34.1019 72.095 35.3735 72.1773C36.4197 72.2644 37.3979 72.7308 38.1241 73.4887C38.8502 74.2466 39.274 75.2437 39.3159 76.2923Z" fill="#CCCCCC"/>
<path d="M36.711 67.7791C36.7476 67.7462 36.7761 67.7053 36.7942 67.6596C36.8122 67.6139 36.8194 67.5646 36.815 67.5156C36.8107 67.4666 36.795 67.4193 36.7692 67.3775C36.7434 67.3356 36.7081 67.3003 36.6663 67.2745C35.9853 66.8529 35.4304 66.2557 35.06 65.5457C34.6896 64.8358 34.5173 64.0392 34.5613 63.2396C34.6053 62.4401 34.8638 61.6672 35.3098 61.0021C35.7559 60.3369 36.3729 59.8042 37.096 59.4597C39.3507 58.3851 42.406 59.2211 44.0728 57.1561C44.4118 56.7143 44.6515 56.2047 44.7756 55.6619C44.8997 55.1191 44.9052 54.556 44.7918 54.0108C44.4322 52.0605 42.9654 50.612 41.3227 49.6194C39.3048 48.4 36.9856 47.77 34.6278 47.8006C32.27 47.8313 29.968 48.5214 27.9825 49.7929C25.997 51.0643 24.4074 52.8662 23.3939 54.9944C22.3804 57.1226 21.9834 59.492 22.2479 61.8341C22.46 63.7113 23.0394 65.8161 21.9228 67.3402C20.9401 68.6815 19.0851 68.933 17.4556 69.2663C13.9606 69.9811 10.5888 71.6303 8.21704 74.294C5.84527 76.9577 4.57999 80.6951 5.29509 84.1887C6.01018 87.6823 8.87903 90.7527 12.4051 91.2942C15.2751 91.7349 18.2387 90.5166 20.3463 88.5199C22.4539 86.5233 23.7861 83.8271 24.6264 81.0487C25.6237 77.751 26.0171 74.1975 27.8178 71.26C29.5798 68.3854 33.377 66.3248 36.353 67.8219C36.41 67.8516 36.4747 67.8635 36.5386 67.8558C36.6025 67.8482 36.6626 67.8215 36.711 67.7791Z" fill="#2F2E41"/>
<path d="M96.1715 168H0.312245C0.229432 168 0.150007 167.967 0.0914494 167.909C0.0328921 167.85 0 167.771 0 167.688C0 167.605 0.0328921 167.526 0.0914494 167.467C0.150007 167.409 0.229432 167.376 0.312245 167.376H96.1715C96.2543 167.376 96.3337 167.409 96.3922 167.467C96.4508 167.526 96.4837 167.605 96.4837 167.688C96.4837 167.771 96.4508 167.85 96.3922 167.909C96.3337 167.967 96.2543 168 96.1715 168Z" fill="#3F3D56"/>
<path d="M193.008 61.7314C192.99 70.5727 189.665 79.0876 183.686 85.6023C177.706 92.117 169.505 96.1601 160.694 96.9368C151.884 97.7135 143.101 95.1677 136.073 89.7997C129.045 84.4317 124.28 76.63 122.715 67.9283C121.15 59.2266 122.898 50.2544 127.615 42.7755C132.332 35.2967 139.678 29.8522 148.207 27.5125C156.737 25.1728 165.833 26.1071 173.708 30.1318C181.583 34.1564 187.668 40.9802 190.765 49.2617C190.842 49.4696 190.917 49.6776 190.991 49.8875V49.8895C191.318 50.8124 191.606 51.7526 191.855 52.7099C192.623 55.6555 193.01 58.6874 193.008 61.7314Z" fill="#3F3D56"/>
<path d="M153.441 37.6785C151.838 36.8121 150.059 36.323 148.238 36.2486C146.418 36.1741 144.604 36.5163 142.936 37.2489C141.467 37.8878 139.921 39.0341 139.431 41.104C141.412 39.9349 143.978 41.7821 144.488 44.7453L144.369 44.7781C144.099 46.8305 144.701 49.0651 145.865 50.3377C145.951 49.7635 146.165 49.2157 146.489 48.7342C146.814 48.2527 147.242 47.8496 147.742 47.5541C148.597 46.9921 149.544 46.5838 150.196 45.6178C150.97 44.4726 151.167 42.7988 151.474 41.2719C151.782 39.745 152.365 38.1039 153.441 37.6785Z" fill="#F3CC45"/>
<path d="M142.348 55.144C141.799 55.968 141.066 56.4849 140.409 57.1286C139.649 57.8191 139.151 58.75 138.998 59.7647C138.915 60.4817 139.043 61.2105 139.025 61.9355C139.008 62.6603 138.766 63.4763 138.273 63.6566C137.494 63.9378 136.899 62.492 136.099 62.391C135.463 62.3118 134.89 63.3119 135.075 64.1794C135.259 65.0469 136.125 65.4312 136.622 64.8647C137.072 65.6193 136.755 66.9879 136.079 67.2196C136.008 67.695 135.937 68.1683 135.867 68.6437C134.159 67.4494 132.434 66.2353 130.981 64.4864C129.366 62.5579 128.364 60.1908 128.104 57.6891C127.916 55.6788 128.195 53.3793 127.272 51.8325C126.533 50.5946 125.265 50.3213 124.124 50.3986C123.916 50.4124 123.706 50.4362 123.498 50.4619C124.171 48.4412 125.025 46.4857 126.052 44.6192C126.284 44.5196 126.499 44.3853 126.691 44.2211C127.753 43.3199 128.225 41.4958 129.087 40.2342C129.142 40.153 129.2 40.0737 129.259 39.9965C130.141 38.8458 131.322 38.2536 132.463 37.703C134.989 36.477 137.589 35.2352 140.256 35.4055L139.497 35.4788C138.611 37.9585 137.725 40.4382 136.838 42.9179C136.703 43.2981 136.567 43.6791 136.43 44.0607C135.927 45.4708 135.407 46.9721 135.485 48.5507C135.53 49.4855 135.855 50.4837 136.473 50.8046C137.05 51.1016 137.68 50.7372 138.237 50.3767C138.473 50.2262 138.706 50.0757 138.942 49.9232C139.788 49.3785 140.725 48.82 141.619 49.1844C142.437 49.5171 143.042 50.6283 143.157 51.8265C143.262 52.9913 142.978 54.1581 142.348 55.144Z" fill="#F3CC45"/>
<path d="M147.38 72.0734C144.909 70.5527 142.438 69.0319 139.967 67.5111L140.009 67.4031C138.473 67.988 137.835 70.7178 138.089 72.9502C138.343 75.1827 139.204 77.1783 139.639 79.3535C140.225 82.3302 140.004 85.4096 138.998 88.2719C142.247 84.6276 145.122 80.6668 147.581 76.4491C147.924 75.9175 148.186 75.3374 148.357 74.7282C148.539 74.0789 148.474 73.3856 148.176 72.781C147.973 72.4827 147.7 72.2395 147.38 72.0734Z" fill="#F3CC45"/>
<path d="M137.628 44.4057C137.338 45.0284 137.293 45.7376 137.503 46.3919C137.747 46.919 138.189 47.3284 138.733 47.5311L140.099 48.2076C140.553 48.4326 141.043 48.6599 141.506 48.4748C142.064 48.2514 142.451 47.3762 142.351 46.5637C142.244 45.6991 141.699 45.1044 141.195 44.5979C140.489 43.8892 139.784 43.1804 139.078 42.4717L138.68 42.9586C138.25 43.378 137.894 43.8673 137.628 44.4057Z" fill="#F3CC45"/>
<path d="M185.689 53.6487C186.303 53.7933 186.917 53.9379 187.531 54.0824C187.424 56.1561 186.396 58.0753 185.017 58.7705C184.442 59.0597 183.802 59.1666 183.327 59.7073C182.897 60.1985 182.679 60.963 182.479 61.6938C182.128 62.9693 181.777 64.2448 181.427 65.5203C181.05 66.8948 180.567 68.4219 179.588 68.917C178.748 69.3428 177.787 68.8219 177.141 67.9485C176.495 67.0751 176.101 65.9006 175.718 64.7558C175.742 66.0036 175.162 67.2276 174.339 67.6613C173.515 68.095 172.513 67.7029 171.962 66.7344C171.566 66.0392 171.401 65.1222 171.013 64.4171C170.624 63.7121 169.81 63.308 169.386 63.9695C169.107 64.4092 169.142 65.0826 169.004 65.6411C168.934 66.012 168.75 66.3518 168.478 66.6134C168.206 66.875 167.859 67.0454 167.486 67.1008C167.143 67.093 166.804 67.0153 166.492 66.8727C166.18 66.73 165.9 66.5253 165.669 66.271C164.456 65.0303 163.666 63.438 163.412 61.7216C163.24 60.8986 163.262 60.0471 163.476 59.234C163.719 58.4635 164.308 57.8694 164.892 58.0159C165.277 57.2038 164.518 56.1264 163.834 56.2215C163.149 56.3166 162.612 57.0514 162.049 57.6158C161.488 58.1803 160.704 58.5903 160.139 58.0298C160.152 58.2348 160.082 58.4364 159.946 58.5903C159.81 58.7442 159.618 58.8377 159.413 58.8504C159.393 58.8516 159.373 58.8521 159.352 58.8517C158.977 58.744 158.628 58.5591 158.328 58.309C157.034 57.5029 155.392 58.0377 154.472 59.5627C155.047 57.1187 155.889 54.3142 157.654 53.7398C158.376 53.5041 159.162 53.6982 159.844 53.2902C161.05 52.5673 161.294 49.8361 160.252 48.7091C160.385 49.7747 160.359 51.0185 159.796 51.7473C159.234 52.4762 158.053 52.0008 158.124 50.9234C158.108 51.075 158.044 51.2175 157.942 51.3307C157.84 51.444 157.705 51.522 157.556 51.5536C157.407 51.5853 157.251 51.569 157.112 51.507C156.973 51.445 156.857 51.3406 156.781 51.2086C156.406 50.6382 156.438 49.7054 156.703 49.0241C156.977 48.407 157.37 47.8498 157.858 47.3841C158.8 46.376 159.755 45.356 160.844 44.7222C161.936 44.0884 163.196 43.8745 164.29 44.5044C164.867 44.8371 165.374 45.3917 165.962 45.6848C166.101 45.7706 166.254 45.8283 166.415 45.8546C166.576 45.881 166.74 45.8754 166.898 45.8383C167.057 45.8012 167.206 45.7333 167.338 45.6384C167.471 45.5435 167.583 45.4236 167.669 45.2853C167.675 45.2747 167.682 45.2639 167.688 45.253C168.126 44.4845 167.92 43.3437 168.082 42.3832C168.374 40.6858 170.072 39.8916 171.013 41.0126C170.309 40.8324 169.582 41.6642 169.495 42.6723C169.406 43.6804 169.915 44.6985 170.597 45.0035C171.742 45.5105 172.863 44.235 173.729 43.0546C174.633 41.8187 175.538 40.5835 176.444 39.3489C176.588 39.1387 176.751 38.9413 176.929 38.7587C177.213 38.4822 177.591 38.3238 177.987 38.3158C178.384 38.3077 178.768 38.4504 179.063 38.7151C179.978 39.4618 180.408 40.9928 181.159 42.0465C182.249 43.5774 183.88 43.9498 185.397 44.2469C186.529 44.4668 187.661 44.6879 188.794 44.9104C189.549 46.3145 190.207 47.7683 190.765 49.2617C188.688 50.2085 186.926 51.7311 185.689 53.6487Z" fill="#F3CC45"/>
<path d="M189.346 77.4791C188.497 79.202 187.51 80.8533 186.394 82.4166C185.681 82.1116 184.914 82.6563 184.246 83.1673C183.549 83.702 182.711 84.2229 181.995 83.7357C181.264 83.2366 181.029 81.8403 181.26 80.7331C181.527 79.7118 181.993 78.7533 182.631 77.9128C183.226 77.0255 183.862 76.1045 184.688 75.7599C185.516 75.4153 186.58 75.9025 186.822 77.079L187.409 77.0591C187.08 76.6076 187.252 75.6727 187.694 75.5083C188.203 75.3162 188.645 76.0154 188.946 76.6333C189.081 76.9126 189.217 77.1939 189.346 77.4791Z" fill="#F3CC45"/>
<path d="M166.884 69.1133C165.624 69.1925 164.625 67.6412 163.962 66.1151C163.298 64.589 162.693 62.8438 161.555 62.0671C160.905 61.6232 160.164 61.5623 159.459 61.3472C159.06 61.2463 158.69 61.0515 158.38 60.7791C158.07 60.5067 157.83 60.1645 157.68 59.7808L156.88 59.4579C155.761 60.0168 154.737 60.7469 153.844 61.6219C152.823 62.7056 152.187 64.0948 152.035 65.5753C151.882 67.1753 152.446 68.9594 153.5 69.5604C154.333 70.0353 155.302 69.736 156.146 70.1708C157.2 70.714 157.826 72.2919 158.063 73.8499C158.299 75.408 158.239 77.0271 158.409 78.6028C158.578 80.1785 159.045 81.8181 160.012 82.6256C161.222 83.636 162.996 82.7964 163.539 80.957C163.805 80.0547 163.796 79.0366 163.995 78.1C164.346 76.4506 165.292 75.2269 166.042 73.874C166.793 72.521 167.383 70.6835 166.884 69.1133Z" fill="#F3CC45"/>
<path d="M154.428 52.9058C154.545 53.014 154.655 53.1304 154.756 53.2542C154.86 53.4344 154.914 53.6397 154.91 53.8479C154.907 54.0562 154.846 54.2595 154.736 54.436C154.888 54.4274 155.036 54.3874 155.172 54.3185C155.307 54.2496 155.427 54.1534 155.524 54.0358C155.754 53.7739 155.956 53.4889 156.127 53.1854C156.208 53.0815 156.266 52.9615 156.296 52.8336C156.327 52.7057 156.33 52.5728 156.306 52.4436C156.246 52.2737 156.105 52.2012 156.006 52.0734C155.87 51.8236 155.776 51.5524 155.73 51.2713C155.675 51.0079 155.548 50.7649 155.363 50.5697C155.178 50.3746 154.942 50.2349 154.681 50.1664L154.745 50.1785C154.637 50.2423 154.552 50.3381 154.502 50.4525C154.451 50.567 154.438 50.6943 154.464 50.8166C154.502 51.0637 154.661 51.2689 154.645 51.521C154.622 51.8835 154.26 52.0536 154.238 52.4161C154.234 52.598 154.302 52.7739 154.428 52.9058Z" fill="#F3CC45"/>
<path d="M152.268 46.7461L152.273 46.745C152.312 46.7097 152.348 46.6714 152.381 46.6305L152.268 46.7461Z" fill="#F3CC45"/>
<path d="M152.646 48.4476C152.797 48.3148 152.909 48.1429 152.97 47.9508C153.03 47.7587 153.036 47.5537 152.988 47.3582C152.897 46.9461 152.572 46.669 152.273 46.7451C152.187 46.833 152.079 46.8974 151.961 46.9322C151.842 46.9671 151.717 46.9713 151.596 46.9444C151.411 46.8968 151.208 46.7743 151.048 46.9135C150.956 47.0175 150.892 47.1428 150.861 47.2779C150.802 47.46 150.743 47.6421 150.683 47.8241C150.655 47.8893 150.648 47.9616 150.662 48.0311C150.674 48.0589 150.692 48.0834 150.716 48.1021C150.739 48.1208 150.767 48.1332 150.797 48.138L151.865 48.4527C151.987 48.5091 152.121 48.538 152.256 48.5371C152.391 48.5362 152.524 48.5056 152.646 48.4476Z" fill="#F3CC45"/>
<path d="M179.521 71.9371C179.357 71.6678 179.192 71.3984 179.028 71.1291C178.866 70.8172 178.645 70.5399 178.377 70.3126C178.26 70.2145 178.109 70.1669 177.956 70.1803C177.804 70.1938 177.663 70.2671 177.565 70.3843L177.557 70.3948L177.577 70.5486C178.017 71.0208 178.318 71.6065 178.444 72.2398C178.481 72.515 178.468 72.7999 178.501 73.0763C178.505 73.2045 178.533 73.3307 178.586 73.4478C178.638 73.5649 178.713 73.6705 178.806 73.7586C179.065 73.9316 179.369 73.6765 179.554 73.3652C179.719 73.1095 179.793 72.8057 179.764 72.5029C179.723 72.2997 179.64 72.1071 179.521 71.9371Z" fill="#F3CC45"/>
<path d="M182.103 72.2876C182.134 72.0354 182.114 71.7796 182.043 71.5356C182.031 71.2056 182.119 70.8796 182.294 70.5999C182.468 70.3359 182.6 70.0464 182.686 69.7418C182.721 69.603 182.715 69.4566 182.667 69.3216C182.612 69.1993 182.48 69.1435 182.405 69.2403L182.567 69.3446C182.348 69.3056 182.123 69.3165 181.909 69.3764C181.787 69.4231 181.678 69.4985 181.592 69.5962C181.505 69.6939 181.443 69.811 181.411 69.9377C181.385 70.1352 181.341 70.3301 181.281 70.5201C181.184 70.7186 180.997 70.7846 180.88 70.9588C180.799 71.1133 180.759 71.2852 180.762 71.4592C180.765 71.6332 180.811 71.8037 180.896 71.9554C181.044 72.2035 181.278 72.3879 181.554 72.4728C181.752 72.5438 182.013 72.5475 182.103 72.2876Z" fill="#F3CC45"/>
<path d="M186.7 73.6741C186.772 73.8601 186.867 74.0358 186.985 74.1967C187.205 74.4183 187.504 74.2821 187.771 74.2283C188.014 74.19 188.262 74.218 188.489 74.3093C188.717 74.4006 188.916 74.5517 189.064 74.7467C188.961 74.2305 188.735 73.7467 188.405 73.3359C188.076 72.9251 187.653 72.5993 187.171 72.3859C186.546 72.1694 185.886 72.0663 185.224 72.0815L185.111 72.1105C185.399 72.9488 186.304 72.9301 186.7 73.6741Z" fill="#F3CC45"/>
<path d="M167.229 75.3887L167.231 75.3924L167.264 75.329L167.229 75.3887Z" fill="#F3CC45"/>
<path d="M166.532 76.7381C166.38 77.0141 166.249 77.3014 166.141 77.5973C165.997 78.0766 165.902 78.5691 165.857 79.0674C165.822 79.3507 165.811 79.7125 165.988 79.8506C166.039 79.8844 166.101 79.8985 166.161 79.8903C166.222 79.8821 166.278 79.8521 166.318 79.8059C166.416 79.7015 166.497 79.5816 166.557 79.451C166.906 78.8501 167.177 78.2072 167.363 77.5379C167.557 76.8278 167.511 76.0733 167.231 75.3924C166.998 75.841 166.765 76.2896 166.532 76.7381Z" fill="#F3CC45"/>
<path d="M159.804 40.7874C159.915 40.8957 160.055 40.9691 160.207 40.9988C160.359 41.0285 160.516 41.013 160.659 40.9544C160.956 40.8246 161.229 40.6448 161.465 40.4228C161.66 40.2783 161.826 40.0976 161.953 39.8905C162.023 39.7668 162.068 39.6304 162.085 39.4893C162.102 39.3482 162.091 39.2051 162.053 39.0682C161.998 38.9371 161.911 38.822 161.799 38.7339C161.688 38.6458 161.556 38.5875 161.416 38.5647C161.021 38.4475 160.625 38.3304 160.23 38.2133L160.516 37.9557C160.222 37.798 159.897 38.0908 159.713 38.4533C159.595 38.69 159.513 38.9429 159.469 39.2036C159.406 39.4761 159.404 39.7589 159.462 40.0324C159.52 40.3059 159.636 40.5635 159.804 40.7874Z" fill="#F3CC45"/>
<path d="M166.78 38.4463C166.891 38.569 167.045 38.6448 167.211 38.6583C167.376 38.6717 167.54 38.6218 167.67 38.5187C167.781 38.4348 167.874 38.3284 167.942 38.2063C168.01 38.0843 168.051 37.9493 168.063 37.8102C168.091 37.4995 167.938 37.1542 167.718 37.1273L167.768 36.8364C167.345 36.7601 166.825 36.7448 166.599 37.2581C166.522 37.4547 166.499 37.6679 166.531 37.8764C166.562 38.085 166.648 38.2815 166.78 38.4463Z" fill="#F3CC45"/>
<path d="M138.035 59.3724C139.491 59.3724 140.672 57.7895 140.672 55.8368C140.672 53.8842 139.491 52.3013 138.035 52.3013C136.578 52.3013 135.397 53.8842 135.397 55.8368C135.397 57.7895 136.578 59.3724 138.035 59.3724Z" fill="#E6E6E6"/>
<path d="M186.236 103.152C187.495 102.817 188.327 101.835 188.093 100.959C187.86 100.084 186.65 99.6457 185.391 99.981C184.132 100.316 183.3 101.298 183.533 102.173C183.767 103.049 184.976 103.487 186.236 103.152Z" fill="#E6E6E6"/>
<path d="M170.813 103.437C172.072 103.102 172.904 102.12 172.67 101.245C172.437 100.369 171.227 99.9308 169.968 100.266C168.709 100.601 167.877 101.583 168.11 102.459C168.343 103.334 169.553 103.772 170.813 103.437Z" fill="#E6E6E6"/>
<path d="M188.976 90.3246C190.235 89.9894 191.067 89.0078 190.833 88.1322C190.6 87.2565 189.39 86.8184 188.131 87.1536C186.872 87.4889 186.04 88.4705 186.273 89.3461C186.507 90.2218 187.716 90.6599 188.976 90.3246Z" fill="#E6E6E6"/>
<path d="M193.525 84.872C194.093 84.8015 194.472 84.0821 194.371 83.2651C194.27 82.4481 193.726 81.8429 193.158 81.9134C192.589 81.9838 192.211 82.7033 192.312 83.5203C192.413 84.3373 192.956 84.9424 193.525 84.872Z" fill="#E6E6E6"/>
<path d="M194.676 75.1945C195.245 75.1241 195.624 74.4046 195.522 73.5876C195.421 72.7706 194.878 72.1655 194.31 72.2359C193.741 72.3064 193.362 73.0258 193.464 73.8428C193.565 74.6598 194.108 75.265 194.676 75.1945Z" fill="#E6E6E6"/>
<path d="M179.129 93.7982C179.698 93.7277 180.076 93.0083 179.975 92.1913C179.874 91.3743 179.331 90.7691 178.762 90.8396C178.194 90.91 177.815 91.6295 177.916 92.4465C178.017 93.2635 178.561 93.8687 179.129 93.7982Z" fill="#E6E6E6"/>
<path d="M186.927 96.6195C187.495 96.5491 187.874 95.8296 187.773 95.0126C187.672 94.1956 187.128 93.5905 186.56 93.6609C185.991 93.7314 185.613 94.4508 185.714 95.2678C185.815 96.0848 186.358 96.69 186.927 96.6195Z" fill="#E6E6E6"/>
<path d="M177.459 104.611C178.028 104.54 178.406 103.821 178.305 103.004C178.204 102.187 177.661 101.582 177.092 101.652C176.523 101.722 176.145 102.442 176.246 103.259C176.347 104.076 176.89 104.681 177.459 104.611Z" fill="#E6E6E6"/>
<path d="M109.57 90.2047C110.83 89.8694 111.661 88.8878 111.428 88.0122C111.195 87.1365 109.985 86.6984 108.726 87.0336C107.466 87.3689 106.635 88.3505 106.868 89.2261C107.101 90.1018 108.311 90.5399 109.57 90.2047Z" fill="#E6E6E6"/>
<path d="M94.1465 90.4903C95.4058 90.1551 96.2375 89.1735 96.0042 88.2978C95.7709 87.4222 94.561 86.9841 93.3017 87.3193C92.0425 87.6545 91.2108 88.6361 91.4441 89.5118C91.6774 90.3874 92.8873 90.8255 94.1465 90.4903Z" fill="#E6E6E6"/>
<path d="M112.311 77.3769C113.57 77.0417 114.402 76.0601 114.169 75.1845C113.935 74.3088 112.725 73.8707 111.466 74.2059C110.207 74.5412 109.375 75.5228 109.609 76.3984C109.842 77.2741 111.052 77.7122 112.311 77.3769Z" fill="#E6E6E6"/>
<path d="M116.859 71.9247C117.428 71.8542 117.807 71.1348 117.705 70.3178C117.604 69.5008 117.061 68.8956 116.492 68.966C115.924 69.0365 115.545 69.7559 115.646 70.5729C115.748 71.3899 116.291 71.9951 116.859 71.9247Z" fill="#E6E6E6"/>
<path d="M118.011 62.2472C118.58 62.1768 118.959 61.4573 118.857 60.6403C118.756 59.8233 118.213 59.2181 117.644 59.2886C117.076 59.3591 116.697 60.0785 116.798 60.8955C116.9 61.7125 117.443 62.3177 118.011 62.2472Z" fill="#E6E6E6"/>
<path d="M102.464 80.8509C103.032 80.7804 103.411 80.061 103.31 79.244C103.208 78.427 102.665 77.8218 102.097 77.8922C101.528 77.9627 101.149 78.6821 101.251 79.4991C101.352 80.3161 101.895 80.9213 102.464 80.8509Z" fill="#E6E6E6"/>
<path d="M110.262 83.6722C110.83 83.6017 111.209 82.8823 111.108 82.0653C111.006 81.2483 110.463 80.6431 109.895 80.7136C109.326 80.7841 108.947 81.5035 109.049 82.3205C109.15 83.1375 109.693 83.7427 110.262 83.6722Z" fill="#E6E6E6"/>
<path d="M100.794 91.6633C101.362 91.5928 101.741 90.8734 101.64 90.0564C101.538 89.2394 100.995 88.6342 100.427 88.7047C99.858 88.7752 99.4792 89.4946 99.5806 90.3116C99.6819 91.1286 100.225 91.7338 100.794 91.6633Z" fill="#E6E6E6"/>
<path d="M203.277 30.9216C204.536 30.5864 205.368 29.6048 205.135 28.7291C204.901 27.8535 203.691 27.4154 202.432 27.7506C201.173 28.0859 200.341 29.0675 200.574 29.9431C200.808 30.8188 202.018 31.2569 203.277 30.9216Z" fill="#E6E6E6"/>
<path d="M187.853 31.2073C189.112 30.872 189.944 29.8904 189.711 29.0148C189.477 28.1391 188.267 27.701 187.008 28.0363C185.749 28.3715 184.917 29.3531 185.151 30.2287C185.384 31.1044 186.594 31.5425 187.853 31.2073Z" fill="#E6E6E6"/>
<path d="M206.017 18.0936C207.277 17.7583 208.108 16.7767 207.875 15.9011C207.642 15.0254 206.432 14.5873 205.173 14.9226C203.913 15.2578 203.082 16.2394 203.315 17.115C203.548 17.9907 204.758 18.4288 206.017 18.0936Z" fill="#E6E6E6"/>
<path d="M210.566 12.6416C211.135 12.5712 211.513 11.8517 211.412 11.0347C211.311 10.2177 210.768 9.61255 210.199 9.68302C209.63 9.75349 209.252 10.4729 209.353 11.2899C209.454 12.1069 209.997 12.7121 210.566 12.6416Z" fill="#E6E6E6"/>
<path d="M211.718 2.9642C212.286 2.89374 212.665 2.1743 212.564 1.3573C212.462 0.540306 211.919 -0.0648783 211.351 0.0055877C210.782 0.0760537 210.403 0.795485 210.505 1.61248C210.606 2.42948 211.149 3.03467 211.718 2.9642Z" fill="#E6E6E6"/>
<path d="M196.17 21.5678C196.739 21.4974 197.118 20.7779 197.016 19.9609C196.915 19.1439 196.372 18.5388 195.803 18.6092C195.235 18.6797 194.856 19.3991 194.957 20.2161C195.059 21.0331 195.602 21.6383 196.17 21.5678Z" fill="#E6E6E6"/>
<path d="M203.968 24.3892C204.537 24.3187 204.915 23.5993 204.814 22.7823C204.713 21.9653 204.17 21.3601 203.601 21.4306C203.033 21.501 202.654 22.2205 202.755 23.0375C202.856 23.8545 203.4 24.4597 203.968 24.3892Z" fill="#E6E6E6"/>
<path d="M194.5 32.3803C195.069 32.3098 195.447 31.5904 195.346 30.7734C195.245 29.9564 194.702 29.3512 194.133 29.4217C193.565 29.4921 193.186 30.2116 193.287 31.0286C193.388 31.8456 193.932 32.4507 194.5 32.3803Z" fill="#E6E6E6"/>
<path d="M104.936 92.398C102.413 92.398 100.772 91.7712 100.046 90.5251C98.6141 88.0681 101.012 83.7567 107.174 77.7109L107.691 78.2379C101.968 83.854 99.4795 88.0856 100.684 90.1535C101.447 91.4613 103.716 91.9302 107.247 91.5085C110.753 91.0901 115.4 89.8431 121.057 87.8022C132.704 83.6004 147.316 76.5129 162.202 67.8451C177.088 59.1776 190.464 49.968 199.866 41.913C201.672 40.3656 203.311 38.8769 204.737 37.4887C206.61 35.7108 208.337 33.7863 209.903 31.7335C212.012 28.8711 212.724 26.6667 211.962 25.3586C210.688 23.1738 205.34 23.3792 196.9 25.9379L196.686 25.2311C205.741 22.4863 211.095 22.404 212.6 24.9869C213.535 26.5917 212.828 29.009 210.498 32.1716C208.908 34.2569 207.154 36.2119 205.253 38.0179C203.815 39.417 202.165 40.9161 200.347 42.4738C190.912 50.557 177.497 59.7941 162.574 68.4832C147.651 77.1729 132.996 84.2806 121.308 88.497C115.598 90.5569 110.897 91.8169 107.335 92.2418C106.539 92.341 105.738 92.3932 104.936 92.398Z" fill="#3F3D56"/>
</g>
<defs>
<clipPath id="clip0_772_238">
<rect width="213" height="168" fill="white"/>
</clipPath>
</defs>
</svg>
