<svg width="58" height="58" viewBox="0 0 58 58" fill="none" xmlns="http://www.w3.org/2000/svg">
<path d="M19.3333 4.83333H38.6667C39.9485 4.83333 41.1779 5.34255 42.0843 6.24898C42.9908 7.1554 43.5 8.38478 43.5 9.66666V48.3333C43.5 49.6152 42.9908 50.8446 42.0843 51.751C41.1779 52.6574 39.9485 53.1667 38.6667 53.1667H19.3333C18.0515 53.1667 16.8221 52.6574 15.9157 51.751C15.0092 50.8446 14.5 49.6152 14.5 48.3333V9.66666C14.5 8.38478 15.0092 7.1554 15.9157 6.24898C16.8221 5.34255 18.0515 4.83333 19.3333 4.83333ZM19.3333 9.66666V48.3333H38.6667V9.66666H19.3333ZM24.1667 31.4167H29V41.0833H24.1667V31.4167ZM24.1667 14.5H33.8333V18.125H24.1667V14.5ZM24.1667 21.75H33.8333V25.375H24.1667V21.75Z" fill="#303030"/>
</svg>
