<svg width="230" height="195" viewBox="0 0 230 195" fill="none" xmlns="http://www.w3.org/2000/svg">
<circle cx="105" cy="103" r="77" fill="#888888"/>
<g clip-path="url(#clip0_772_236)">
<path d="M135.067 50.0605H128.248C127.9 50.0601 127.567 49.9219 127.321 49.6762C127.075 49.4305 126.937 49.0974 126.937 48.75V41.9355C126.937 41.588 127.075 41.2549 127.321 41.0093C127.567 40.7636 127.9 40.6254 128.248 40.625H135.067C135.415 40.6254 135.748 40.7636 135.994 41.0093C136.24 41.2549 136.378 41.588 136.378 41.9355V48.75C136.378 49.0974 136.24 49.4305 135.994 49.6762C135.748 49.9219 135.415 50.0601 135.067 50.0605ZM128.248 41.1492C128.039 41.1494 127.839 41.2323 127.692 41.3797C127.544 41.5272 127.461 41.727 127.461 41.9355V48.75C127.461 48.9585 127.544 49.1583 127.692 49.3057C127.839 49.4531 128.039 49.5361 128.248 49.5363H135.067C135.276 49.5361 135.476 49.4531 135.623 49.3057C135.771 49.1583 135.854 48.9585 135.854 48.75V41.9355C135.854 41.727 135.771 41.5272 135.623 41.3797C135.476 41.2323 135.276 41.1494 135.067 41.1492H128.248Z" fill="#E6E6E6"/>
<path d="M55.6004 9.43548H48.7815C48.4338 9.43509 48.1005 9.29689 47.8547 9.05121C47.6088 8.80554 47.4705 8.47244 47.4701 8.125V1.31048C47.4705 0.963044 47.6088 0.629948 47.8547 0.384271C48.1005 0.138593 48.4338 0.000397483 48.7815 0H55.6004C55.948 0.000397483 56.2814 0.138593 56.5272 0.384271C56.773 0.629948 56.9113 0.963044 56.9117 1.31048V8.125C56.9113 8.47244 56.773 8.80554 56.5272 9.05121C56.2814 9.29689 55.948 9.43509 55.6004 9.43548ZM48.7815 0.524194C48.5729 0.524421 48.3729 0.607335 48.2254 0.754744C48.0779 0.902153 47.9949 1.10202 47.9947 1.31048V8.125C47.9949 8.33347 48.0779 8.53333 48.2254 8.68074C48.3729 8.82815 48.5729 8.91106 48.7815 8.91129H55.6004C55.809 8.91106 56.009 8.82815 56.1565 8.68074C56.304 8.53333 56.387 8.33347 56.3872 8.125V1.31048C56.387 1.10202 56.304 0.902153 56.1565 0.754744C56.009 0.607335 55.809 0.524421 55.6004 0.524194H48.7815Z" fill="#E6E6E6"/>
<path d="M130.871 46.6533H124.052C123.704 46.6529 123.371 46.5147 123.125 46.269C122.879 46.0233 122.741 45.6902 122.74 45.3428V38.5283C122.741 38.1808 122.879 37.8477 123.125 37.602C123.371 37.3564 123.704 37.2182 124.052 37.2178H130.871C131.218 37.2182 131.552 37.3564 131.798 37.602C132.043 37.8477 132.182 38.1808 132.182 38.5283V45.3428C132.182 45.6902 132.043 46.0233 131.798 46.269C131.552 46.5147 131.218 46.6529 130.871 46.6533ZM124.052 37.742C123.843 37.7422 123.643 37.8251 123.496 37.9725C123.348 38.1199 123.265 38.3198 123.265 38.5283V45.3428C123.265 45.5512 123.348 45.7511 123.496 45.8985C123.643 46.0459 123.843 46.1288 124.052 46.1291H130.871C131.079 46.1288 131.279 46.0459 131.427 45.8985C131.574 45.7511 131.657 45.5512 131.657 45.3428V38.5283C131.657 38.3198 131.574 38.1199 131.427 37.9725C131.279 37.8251 131.079 37.7422 130.871 37.742H124.052Z" fill="#E6E6E6"/>
<path d="M12.3265 103.528H5.50758C5.15992 103.528 4.82661 103.39 4.58077 103.144C4.33494 102.898 4.19665 102.565 4.19625 102.218V95.4033C4.19665 95.0558 4.33494 94.7227 4.58077 94.477C4.82661 94.2314 5.15992 94.0932 5.50758 94.0928H12.3265C12.6742 94.0932 13.0075 94.2314 13.2533 94.477C13.4991 94.7227 13.6374 95.0558 13.6378 95.4033V102.218C13.6374 102.565 13.4991 102.898 13.2533 103.144C13.0075 103.39 12.6742 103.528 12.3265 103.528ZM5.50758 94.617C5.29898 94.6172 5.09899 94.7001 4.95149 94.8475C4.80398 94.9949 4.72101 95.1948 4.72079 95.4033V102.218C4.72101 102.426 4.80398 102.626 4.95149 102.774C5.09899 102.921 5.29898 103.004 5.50758 103.004H12.3265C12.5351 103.004 12.7351 102.921 12.8826 102.774C13.0301 102.626 13.1131 102.426 13.1133 102.218V95.4033C13.1131 95.1948 13.0301 94.9949 12.8826 94.8475C12.7351 94.7001 12.5351 94.6172 12.3265 94.617H5.50758Z" fill="#E6E6E6"/>
<path d="M8.13024 100.121H1.31133C0.963666 100.121 0.630355 99.9824 0.384519 99.7367C0.138683 99.491 0.00039774 99.1579 0 98.8105V91.996C0.00039774 91.6485 0.138683 91.3154 0.384519 91.0698C0.630355 90.8241 0.963666 90.6859 1.31133 90.6855H8.13024C8.47791 90.6859 8.81122 90.8241 9.05706 91.0698C9.30289 91.3154 9.44118 91.6485 9.44157 91.996V98.8105C9.44118 99.1579 9.30289 99.491 9.05706 99.7367C8.81122 99.9824 8.47791 100.121 8.13024 100.121ZM1.31133 91.2097C1.10273 91.2099 0.902735 91.2928 0.755231 91.4402C0.607727 91.5876 0.52476 91.7875 0.524532 91.996V98.8105C0.52476 99.019 0.607727 99.2188 0.755231 99.3662C0.902735 99.5136 1.10273 99.5965 1.31133 99.5968H8.13024C8.33885 99.5965 8.53884 99.5136 8.68634 99.3662C8.83385 99.2188 8.91681 99.019 8.91704 98.8105V91.996C8.91681 91.7875 8.83385 91.5876 8.68634 91.4402C8.53884 91.2928 8.33885 91.2099 8.13024 91.2097H1.31133Z" fill="#E6E6E6"/>
<path d="M24.2411 22.5504H87.3463C90.3915 22.5504 93.346 23.5858 95.7243 25.4864C98.1026 27.3869 99.7631 30.0396 100.433 33.0083L132.319 174.348C132.666 175.89 132.673 177.489 132.337 179.033C132.001 180.578 131.331 182.03 130.374 183.288C129.417 184.546 128.196 185.58 126.797 186.317C125.398 187.054 123.855 187.476 122.275 187.554L57.4029 190.748C53.9291 190.919 50.5118 189.821 47.7885 187.659C45.0653 185.497 43.2221 182.419 42.6031 178.999L24.5155 79.0695L23.1698 79.4537L19.7089 60.5134L21.0941 60.1674L16.0452 32.2736C15.829 31.0788 15.8791 29.8511 16.1921 28.6779C16.5051 27.5048 17.0732 26.4151 17.8559 25.4865C18.6386 24.5579 19.6167 23.8133 20.7204 23.3058C21.8241 22.7983 23.0262 22.5404 24.2411 22.5504Z" fill="#3F3D56"/>
<path d="M79.0386 25.5974H86.4049C88.5204 25.5974 90.5722 26.3204 92.2198 27.6464C93.8674 28.9724 95.0116 30.8217 95.4626 32.8872L126.069 173.074C126.245 173.881 126.245 174.717 126.068 175.524C125.892 176.331 125.543 177.091 125.046 177.751C124.548 178.411 123.915 178.956 123.187 179.348C122.46 179.741 121.657 179.972 120.832 180.026L56.169 184.262C54.3448 184.381 52.5404 183.825 51.1002 182.7C49.66 181.575 48.6848 179.959 48.3607 178.161L22.2444 33.2637C22.0753 32.3259 22.1143 31.3624 22.3586 30.4413C22.6028 29.5202 23.0464 28.6638 23.658 27.9327C24.2695 27.2016 25.0342 26.6135 25.8981 26.21C26.7619 25.8065 27.7038 25.5974 28.6574 25.5974H35.6454C36.3218 25.5974 36.9793 25.8202 37.5161 26.2313C38.0529 26.6425 38.4392 27.219 38.615 27.8717C38.7702 28.4479 39.1112 28.9569 39.5851 29.3198C40.059 29.6828 40.6395 29.8795 41.2366 29.8795H74.4114C75.5806 29.8795 76.7068 29.4385 77.5646 28.6446C78.4225 27.8506 78.9489 26.7624 79.0386 25.5974Z" fill="white"/>
<path d="M27.2757 49.433H97.4255L104.899 83.0847L33.8323 84.3952L27.2757 49.433Z" fill="#F3CC45"/>
<path d="M93.8912 113.161H110.406L110.931 116.321H94.4157L93.8912 113.161Z" fill="#F3CC45"/>
<path d="M107.328 97.043L37.2864 98.5253L37.2934 98.8547L107.335 97.3724L107.328 97.043Z" fill="#2F2E41"/>
<path d="M109.471 106.76L38.1101 108.407L38.1177 108.737L109.478 107.09L109.471 106.76Z" fill="#2F2E41"/>
<path d="M100.71 146.972H117.225L117.75 150.131H101.235L100.71 146.972Z" fill="#F3CC45"/>
<path d="M114.147 130.853L44.1053 132.336L44.1123 132.665L114.154 131.183L114.147 130.853Z" fill="#2F2E41"/>
<path d="M116.289 140.571L44.929 142.218L44.9366 142.547L116.297 140.9L116.289 140.571Z" fill="#2F2E41"/>
<path d="M161.44 191.647L158.316 191.647L156.829 179.602L161.441 179.602L161.44 191.647Z" fill="#A0616A"/>
<path d="M162.237 194.674L152.161 194.674V194.546C152.161 193.507 152.575 192.51 153.31 191.775C154.046 191.04 155.043 190.627 156.083 190.627L162.237 190.627L162.237 194.674Z" fill="#2F2E41"/>
<path d="M200.26 189.602L197.218 190.318L193.008 178.934L197.498 177.878L200.26 189.602Z" fill="#A0616A"/>
<path d="M201.73 192.366L191.922 194.674L191.893 194.55C191.655 193.538 191.828 192.473 192.376 191.589C192.923 190.706 193.799 190.075 194.812 189.837L200.802 188.427L201.73 192.366Z" fill="#2F2E41"/>
<path d="M160.802 140.842C160.808 140.214 160.994 125.4 165.057 119.799L165.117 119.717L179.277 121.669L178.961 124.778C179.584 125.383 184.483 130.5 185.898 142.615L200.927 182.955L193.94 183.59L173.256 139.553L162.311 187.421H155.384L160.802 140.842Z" fill="#2F2E41"/>
<path d="M163.398 120.346L164.782 113.083C164.512 112.735 163.311 111.061 163.578 109.099C163.752 107.818 164.517 106.696 165.851 105.761L169.439 97.3949L169.488 97.3666C169.729 97.2243 175.442 93.9232 178.556 97.0377C178.634 97.098 186.302 103.181 183.222 111.386L179.421 122.784L163.398 120.346Z" fill="#CCCCCC"/>
<path d="M158.582 130.171C158.956 130.128 159.315 130.004 159.635 129.808C159.955 129.611 160.228 129.347 160.435 129.034C160.642 128.721 160.778 128.366 160.833 127.994C160.888 127.623 160.86 127.244 160.753 126.884L168.162 121.549L163.727 119.863L157.371 125.188C156.778 125.409 156.287 125.839 155.99 126.397C155.694 126.955 155.612 127.603 155.762 128.217C155.911 128.832 156.281 129.37 156.801 129.73C157.321 130.09 157.955 130.247 158.582 130.171Z" fill="#A0616A"/>
<path d="M159.944 121.541L171.256 112.635L167.893 101.152C167.734 100.609 167.69 100.038 167.761 99.4766C167.833 98.9149 168.02 98.3739 168.31 97.8874C168.578 97.4287 168.939 97.0312 169.371 96.7202C169.802 96.4092 170.293 96.1916 170.813 96.0814C172.75 95.6719 174.508 96.7555 176.037 99.3025L176.049 99.3255C176.301 99.9436 182.194 114.501 177.695 117.614C173.293 120.66 163.087 125.093 162.984 125.137L162.864 125.189L159.944 121.541Z" fill="#CCCCCC"/>
<path d="M174.978 94.0098C178.762 94.0098 181.83 90.9438 181.83 87.1618C181.83 83.3798 178.762 80.3138 174.978 80.3138C171.193 80.3138 168.125 83.3798 168.125 87.1618C168.125 90.9438 171.193 94.0098 174.978 94.0098Z" fill="#A0616A"/>
<path d="M185.721 84.7172C189.069 84.7172 191.783 82.0049 191.783 78.659C191.783 75.3132 189.069 72.6008 185.721 72.6008C182.373 72.6008 179.659 75.3132 179.659 78.659C179.659 82.0049 182.373 84.7172 185.721 84.7172Z" fill="#2F2E41"/>
<path d="M190.95 83.6756C190.165 84.2423 189.256 84.613 188.298 84.7567C187.341 84.9003 186.363 84.8128 185.447 84.5013C184.53 84.1898 183.701 83.6636 183.03 82.9665C182.359 82.2694 181.864 81.4217 181.588 80.4945C181.693 81.3254 181.968 82.1257 182.398 82.8448C182.828 83.5638 183.402 84.186 184.084 84.6721C184.767 85.1582 185.543 85.4977 186.363 85.669C187.183 85.8403 188.03 85.8398 188.85 85.6675C189.67 85.4952 190.446 85.1549 191.128 84.668C191.81 84.181 192.383 83.5581 192.812 82.8386C193.241 82.119 193.515 81.3184 193.619 80.4873C193.723 79.6563 193.653 78.8128 193.414 78.0101C193.549 79.0885 193.392 80.1835 192.959 81.1804C192.525 82.1772 191.831 83.0391 190.95 83.6756Z" fill="#2F2E41"/>
<path d="M167.026 83.6823C168.084 81.7889 168.489 80.998 169.854 79.8466C171.06 78.8284 172.544 78.5293 173.742 79.4942C175.158 78.8827 176.734 78.744 178.235 79.0988C179.736 79.4536 181.083 80.2829 182.075 81.4635C183.067 82.6441 183.652 84.1131 183.742 85.6522C183.833 87.1914 183.424 88.7185 182.576 90.0069C181.729 91.2952 180.488 92.276 179.038 92.8036C177.589 93.3311 176.008 93.3773 174.53 92.9353C173.052 92.4933 171.756 91.5866 170.834 90.3499C169.913 89.1132 169.416 87.6125 169.416 86.0708C169.417 85.8 169.433 85.5296 169.465 85.2606C168.424 85.1146 168.066 83.8284 167.026 83.6823Z" fill="#2F2E41"/>
<path d="M229.738 195H129.814C129.745 195 129.678 194.972 129.629 194.923C129.58 194.874 129.552 194.807 129.552 194.738C129.552 194.668 129.58 194.602 129.629 194.553C129.678 194.503 129.745 194.476 129.814 194.476H229.738C229.807 194.476 229.874 194.503 229.923 194.553C229.972 194.602 230 194.668 230 194.738C230 194.807 229.972 194.874 229.923 194.923C229.874 194.972 229.807 195 229.738 195Z" fill="#3F3D56"/>
</g>
<defs>
<clipPath id="clip0_772_236">
<rect width="230" height="195" fill="white"/>
</clipPath>
</defs>
</svg>
