<svg width="210" height="161" viewBox="0 0 210 161" fill="none" xmlns="http://www.w3.org/2000/svg">
<circle cx="105" cy="80" r="77" fill="#888888"/>
<g clip-path="url(#clip0_772_237)">
<path opacity="0.1" d="M124.656 26.5446C111.598 26.0087 99.1609 21.031 87.2851 15.5839C75.4093 10.1368 63.6384 4.10145 50.899 1.21472C42.7013 -0.640602 33.3274 -0.902482 26.7156 4.28678C20.36 9.28265 18.306 17.9046 17.2024 25.906C16.3711 31.9252 15.8829 38.2607 18.1588 43.8952C19.7386 47.8073 22.5451 51.0969 24.4861 54.8438C31.2391 67.8834 26.4654 83.9609 19.1494 96.6943C15.7194 102.665 11.7346 108.364 9.08543 114.722C6.43627 121.079 5.21156 128.364 7.52983 134.848C9.8259 141.276 15.2998 146.105 21.2296 149.501C33.2729 156.399 47.4589 158.365 61.3019 159.491C91.9338 161.965 122.731 160.901 153.446 159.822C164.811 159.419 176.229 159.016 187.41 156.945C193.621 155.793 200.031 153.963 204.538 149.546C210.262 143.939 211.681 134.437 207.845 127.415C201.413 115.622 183.633 112.693 179.132 100.036C176.658 93.0703 179.199 85.3105 182.796 78.8502C190.51 64.9906 203.443 52.8313 204.123 36.9896C204.591 26.1115 198.374 15.2132 188.762 10.0663C178.688 4.66953 164.716 5.3484 157.287 14.2805C149.636 23.4786 136.187 27.018 124.656 26.5446Z" fill="#F3CC45"/>
<path d="M85.9293 52.6863L75.1793 54.3684L69.6711 54.8921L68.2023 55.0331C68.2023 55.0331 65.5794 55.4481 65.3231 55.0331C65.0669 54.6181 60.0127 55.0331 60.0127 55.0331C60.0127 55.0331 56.9418 51.3789 49.646 53.3087C48.9094 53.7443 48.0794 53.9984 47.2249 54.0501C47.2239 54.0353 47.2239 54.0205 47.2249 54.0058C47.2511 53.1657 47.1462 50.2689 44.5858 48.6835C43.8576 48.7587 43.151 48.9749 42.5056 49.3201L42.4471 49.3523L42.2736 49.4531L42.2514 49.4772C42.3269 49.1456 42.3781 48.809 42.4047 48.47C42.4047 48.3431 42.4047 48.2162 42.4189 48.0893C42.7125 48.008 42.9696 47.8289 43.1472 47.5816C43.2202 47.4351 43.2516 47.2713 43.238 47.1082C43.238 47.0498 43.238 46.9894 43.238 46.931C43.237 46.9182 43.237 46.9054 43.238 46.8927C43.238 46.8927 43.238 46.8927 43.238 46.9048C43.1957 46.3081 43.108 45.7155 42.9757 45.132L43.7666 45.6558C43.9563 45.7807 44.1944 45.9136 44.4204 45.8431C44.4929 45.8173 44.5585 45.7749 44.6117 45.7193C44.665 45.6637 44.7045 45.5964 44.727 45.5228C44.8683 45.1401 44.7654 44.6828 45.064 44.3665C45.1346 44.292 45.2234 44.2316 45.2839 44.153C45.3662 44.0454 45.4058 43.9113 45.3949 43.7763C45.3956 43.698 45.3895 43.6198 45.3767 43.5426V43.5587C45.3244 43.3615 45.3161 43.1552 45.3525 42.9544C45.458 42.9955 45.5739 43.0014 45.683 42.9712C45.7921 42.9411 45.8885 42.8765 45.9578 42.7872C46.0663 42.6174 46.1199 42.4183 46.1111 42.2171C46.1293 41.8767 46.1434 41.5282 46.1354 41.1817C46.1363 41.175 46.1363 41.1682 46.1354 41.1615C46.1152 40.3416 45.9598 39.5338 45.3949 38.8791C45.5422 37.9404 44.5192 36.9171 43.3772 36.7881C43.0968 36.7579 42.7518 36.7418 42.6267 36.5303C42.5844 36.4297 42.5657 36.3208 42.5722 36.212C42.544 35.8554 42.2978 35.5392 42.0617 35.239C41.9657 35.1079 41.85 34.9924 41.7187 34.8965C41.3435 34.6548 40.8108 34.7193 40.3467 34.8019C39.4966 34.9509 38.6519 35.1175 37.8126 35.3015C37.7118 34.8958 37.7181 34.4711 37.8307 34.0686C37.9087 33.8672 37.9563 33.6554 37.972 33.4401C37.9758 33.3722 37.9683 33.3041 37.9498 33.2386V33.2648C37.9381 33.2312 37.9246 33.1983 37.9094 33.1661C37.8692 33.0925 37.8113 33.03 37.7408 32.9843C37.6704 32.9385 37.5896 32.911 37.5059 32.9042C37.3964 32.9006 37.2882 32.9288 37.1944 32.9853C37.1006 33.0417 37.0252 33.1242 36.9773 33.2225C36.4972 33.9205 36.1642 34.7087 35.9987 35.5392C35.6786 35.3162 35.3077 35.1765 34.9198 35.1329C34.5318 35.0893 34.1391 35.1431 33.7773 35.2894C33.5951 35.3874 33.3982 35.4554 33.1942 35.4908C33.0245 35.4913 32.8576 35.4475 32.71 35.3637C32.5624 35.28 32.4393 35.1592 32.3529 35.0134C32.1208 34.6689 32.0179 34.258 31.57 34.0303C31.4701 33.9792 31.3594 33.9526 31.2472 33.9526C31.1349 33.9526 31.0243 33.9792 30.9244 34.0303C30.872 34.0578 30.8257 34.0954 30.7883 34.1411C30.7508 34.1868 30.723 34.2396 30.7065 34.2962C30.7074 34.2862 30.7074 34.2761 30.7065 34.266C30.7034 34.2955 30.7034 34.3252 30.7065 34.3547C30.7065 34.3667 30.7065 34.3788 30.7065 34.3909C30.7065 34.403 30.7065 34.4211 30.7065 34.4352C30.6903 34.824 30.9627 35.3276 30.654 35.6338C30.53 35.7372 30.3857 35.8134 30.2303 35.8574L29.1327 36.2503C28.5466 36.4933 27.9268 36.6454 27.2946 36.7015C26.7196 36.7216 26.1385 36.5947 25.5716 36.6088C25.5449 36.5953 25.5193 36.5798 25.4949 36.5625C25.3683 36.5692 25.2423 36.584 25.1176 36.6068C25.13 36.6225 25.1435 36.6373 25.1579 36.6511H25.1176C25.4066 36.9719 25.7879 37.1956 26.2091 37.2917C26.4694 37.3562 26.7438 37.3764 26.996 37.4569C27.2482 37.5375 27.4883 37.6987 27.5327 37.9203C27.5373 38.1058 27.4928 38.2893 27.4036 38.4521L27.3935 38.436C27.3671 38.5075 27.3541 38.5833 27.3552 38.6596C27.3502 38.6957 27.3502 38.7323 27.3552 38.7683C27.3994 38.8951 27.4882 39.0016 27.6051 39.0679C27.722 39.1342 27.859 39.1559 27.9907 39.1289L26.6934 39.9448C26.5967 40.0027 26.5061 40.0702 26.423 40.1462L26.3867 40.1362C26.3498 40.1723 26.3207 40.2156 26.3013 40.2634C26.2818 40.3113 26.2725 40.3626 26.2737 40.4142C26.2695 40.4537 26.2744 40.4936 26.2878 40.531L26.7055 40.6499L25.5655 42.2252C25.496 42.3167 25.4352 42.4145 25.3839 42.5173L25.3718 42.4971C25.3459 42.5612 25.3322 42.6295 25.3315 42.6986C25.3274 42.7327 25.3274 42.7672 25.3315 42.8013C25.3412 42.8579 25.363 42.9118 25.3953 42.9594C25.4276 43.0069 25.4697 43.047 25.5188 43.077C25.5679 43.1069 25.6229 43.126 25.68 43.1331C25.7371 43.1401 25.7951 43.1348 25.85 43.1176C25.6002 43.3679 25.3991 43.6623 25.2568 43.9858L25.2387 43.9737L25.2205 44.016C25.1921 44.0794 25.1776 44.1481 25.1781 44.2175C25.1697 44.2705 25.1804 44.3248 25.2084 44.3706C25.2596 44.4243 25.323 44.465 25.3932 44.4891C25.4634 44.5133 25.5384 44.5203 25.6119 44.5096C26.2172 44.5096 26.7801 44.0966 26.875 43.6031C27.0606 43.8045 26.8608 44.0442 26.6853 44.2517C25.9711 45.0857 25.2447 45.9338 24.8694 46.9068C24.7375 47.2405 24.6572 47.5924 24.6313 47.9503C24.6313 47.9503 24.6313 47.9342 24.6313 47.9261C24.6313 47.9523 24.6313 47.9785 24.6313 48.0047C24.5808 48.6727 24.792 49.3343 25.2205 49.8499C25.3792 50.0104 25.5211 50.1866 25.6442 50.3757C25.8702 50.7947 25.741 51.3326 26.0921 51.6871C26.3754 50.9333 26.7181 50.2031 27.1171 49.5034C27.1108 49.6928 27.0823 49.8807 27.0323 50.0634V50.0473C27.0323 50.0957 27.0162 50.142 27.0122 50.1883C27.0101 50.2226 27.0101 50.2569 27.0122 50.2911C27.0028 50.4125 27.0323 50.5338 27.0965 50.6374C27.1607 50.7409 27.2562 50.8214 27.3693 50.8672C27.7264 50.9941 28.0956 50.7363 28.3377 50.4784C28.372 50.5671 28.4064 50.6537 28.4447 50.7403C29.1957 52.4083 30.5528 53.7294 32.2419 54.4368L32.2742 54.5033C30.9123 55.3091 27.7466 57.2692 27.5408 58.0206C27.2765 58.9795 27.3713 61.5016 29.2679 62.0132C29.6783 62.125 30.1041 62.1699 30.5289 62.1462C30.4482 62.2731 30.3695 62.402 30.2928 62.5269C29.7683 63.377 29.3284 64.1647 29.1952 64.5877C28.8119 65.8226 25.2286 67.3173 25.2286 67.3173C25.2286 67.3173 21.964 69.9361 21.2619 74.9723C21.2619 74.9723 17.8057 79.4565 15.8869 80.3912C13.9681 81.3259 10.641 87.0551 10.641 87.0551C10.641 87.0551 7.34622 89.3636 6.6461 91.6138C5.94598 93.8639 4.22493 94.4179 4.22493 94.4179C4.22493 94.4179 4.38231 94.4945 4.62846 94.6476C4.54977 94.6899 4.46705 94.7382 4.37424 94.7946C2.80855 95.7253 -0.647669 98.2736 0.117017 102.248C0.859508 106.076 5.1934 102.351 7.29982 100.268L7.48947 100.079C7.45725 100.293 7.41279 100.506 7.35631 100.715C7.81198 100.005 8.37716 99.3715 9.03095 98.8377C9.7345 98.2701 10.3123 97.5629 10.7278 96.7607C11.0466 96.1564 11.557 95.5521 12.3419 95.3506C14.069 94.9155 22.8336 88.1892 24.7564 84.7001C26.6792 81.2111 30.7065 79.8654 30.7065 79.8654L32.5546 85.6369C32.8365 86.5193 32.8859 87.4594 32.6979 88.3665C32.2943 90.3326 31.7879 94.1319 33.0106 97.0871C33.0106 97.0871 33.0671 97.0347 33.17 96.9481C33.3375 97.6975 33.5513 98.6825 33.745 99.6515C33.7914 99.8892 33.8358 100.127 33.8782 100.361C34.0013 101.019 34.1042 101.638 34.1627 102.131C34.4189 104.251 35.1231 109.109 35.6981 109.607C36.2731 110.105 39.5316 120.195 39.5316 120.195C39.5316 120.195 42.4108 126.798 41.9649 129.725C41.9243 130.084 41.9304 130.446 41.9831 130.803C42.0823 131.531 42.2292 132.252 42.4229 132.961C42.4794 133.174 42.5359 133.392 42.6005 133.613C42.6529 133.805 42.7094 134 42.7659 134.196C44.1601 138.919 46.8274 145.235 46.8274 145.235C46.8274 145.235 47.0493 145.809 47.3379 146.576C47.4327 146.834 47.5396 147.114 47.6425 147.402C48.1167 148.692 48.6171 150.138 48.6171 150.466C48.6171 150.541 48.7179 150.623 48.8935 150.708C48.4365 151.467 48.032 152.255 47.6829 153.069C47.122 154.391 45.5079 155.7 45.5079 155.7C45.5079 155.7 43.5871 156.244 43.5871 157.916V159.193C43.5871 159.193 47.6667 159.114 49.0105 159.489C50.3542 159.864 52.1459 159.223 52.1459 159.223L52.5293 158.728C52.5293 158.728 57.1839 158.929 57.4725 157.775C57.5572 157.436 57.5532 156.715 57.4846 155.855C57.3966 154.806 57.2416 153.764 57.0205 152.735C57.3272 152.723 57.537 152.702 57.537 152.702C57.537 152.702 59.6656 154.072 59.8876 155.428C59.9556 155.826 60.1096 156.205 60.3388 156.539C60.5681 156.872 60.8671 157.151 61.2152 157.358C61.2152 157.358 63.4245 158.365 67.6616 157.904C69.881 157.668 70.2986 156.54 70.0948 155.537C69.9092 154.618 69.199 153.804 68.8621 153.871C68.1599 154.012 65.3271 149.947 65.3271 149.947L63.8886 146.925C64.0177 145.313 63.6384 144.55 63.1057 144.226C63.4709 140.827 63.5193 136.272 63.5193 136.272C63.5193 136.272 63.8401 130.791 63.5193 125.87C63.1985 120.948 63.1985 111.295 62.107 108.056C61.6026 106.549 60.8722 102.329 60.2387 98.2474C60.1902 97.9412 60.1418 97.6431 60.0974 97.3349C59.9441 96.3417 59.8008 95.3708 59.6677 94.4602C59.7302 94.43 59.7948 94.3998 59.8513 94.3676L59.5083 91.3781L59.4599 90.9651C59.472 90.9772 59.4881 90.9853 59.5002 90.9953C60.6523 92.0529 59.1168 86.1989 59.1168 86.1989C59.1168 86.1989 58.4248 79.4666 58.4712 75.5948C58.4756 74.2172 58.4021 72.8405 58.2513 71.4712C58.1343 70.3189 58.4066 68.8221 60.1499 67.7686C60.6079 67.4799 61.0375 67.1488 61.4331 66.7795C61.9194 66.3383 62.9806 65.7722 65.2666 65.7058C69.1001 65.5829 72.9336 63.5886 72.9336 63.5886C72.9336 63.5886 77.3503 63.8383 79.3901 61.2216C81.4299 58.6048 86.5568 57.9843 86.5568 57.9843L85.9293 52.6863ZM6.87813 96.8816L6.31117 96.0879C6.52179 96.3364 6.71143 96.6019 6.87813 96.8816ZM55.134 129.284C55.1017 129.687 55.0775 130.161 55.0735 130.694C55.0574 132.362 55.2228 134.586 55.9754 136.712L55.6546 145.082H55.6283C55.358 145.053 55.1058 145.908 54.9101 147.034C54.75 146.569 54.5516 146.118 54.3169 145.686C53.9335 145.126 54.2543 142.014 54.2543 142.014C54.2543 142.014 52.6523 139.459 52.5272 138.897C52.4021 138.335 50.4773 129.242 50.4773 129.242C50.4773 129.242 50.3502 122.143 49.646 120.338C48.9419 118.533 48.7502 110.683 48.7502 110.683C48.7502 110.683 52.269 116.349 52.5272 119.216L55.2773 127.999C55.2773 127.999 55.1925 128.478 55.134 129.284Z" fill="url(#paint0_linear_772_237)"/>
<path d="M62.8313 136.013C62.8313 136.013 62.7264 145.978 61.6752 147.334C60.624 148.69 55.126 147.396 55.126 147.396L55.5295 136.444C54.8011 134.341 54.6397 132.137 54.6579 130.485C54.6579 129.957 54.6841 129.478 54.7144 129.089C54.7729 128.283 54.8536 127.808 54.8536 127.808L52.1964 119.109C51.9482 116.269 48.5505 110.648 48.5505 110.648C48.5505 110.648 48.7361 118.422 49.4161 120.211C50.096 122 50.2231 129.032 50.2231 129.032C50.2231 129.032 52.0773 138.041 52.2004 138.597C52.3235 139.153 53.869 141.681 53.869 141.681C53.869 141.681 53.5603 144.765 53.9315 145.321C54.3028 145.877 55.8463 150.196 55.475 150.998C55.1038 151.8 48.4314 150.688 48.4314 150.072C48.4314 149.747 47.9472 148.313 47.4892 147.036L47.1946 146.218C46.9162 145.458 46.7003 144.89 46.7003 144.89C46.7003 144.89 44.1258 138.633 42.78 133.954C42.7235 133.752 42.6711 133.567 42.6186 133.38C42.5581 133.158 42.5016 132.943 42.4491 132.731C42.2625 132.029 42.1203 131.316 42.0234 130.596C41.9728 130.242 41.9667 129.883 42.0053 129.528C42.437 126.627 39.6567 120.088 39.6567 120.088C39.6567 120.088 36.5052 110.093 35.9483 109.599C35.3914 109.105 34.7115 104.295 34.4653 102.196C34.4088 101.704 34.31 101.092 34.1909 100.441C34.1506 100.21 34.1062 99.9738 34.0618 99.7361C33.6845 97.7922 33.2205 95.7797 33.2205 95.7797L40.1511 91.2129L58.3804 89.2388C58.3804 89.2388 58.8889 93.1388 59.5285 97.4376C59.5729 97.7358 59.6193 98.042 59.6657 98.3421C60.271 102.383 60.9832 106.565 61.4694 108.056C62.5186 111.265 62.5186 120.828 62.8293 125.701C63.14 130.574 62.8313 136.013 62.8313 136.013Z" fill="#63667E"/>
<path opacity="0.1" d="M44.9006 94.9377L47.1946 106.632H48.2842L46.1051 94.5308L44.9006 94.9377Z" fill="black"/>
<path opacity="0.1" d="M34.199 100.443C34.1587 100.212 34.1143 99.9758 34.0699 99.7381C35.1372 99.5206 37.5523 98.6322 37.1771 95.0706H37.9175C37.9175 95.0706 38.6197 99.7623 34.199 100.443Z" fill="black"/>
<path opacity="0.1" d="M59.6737 98.3502C58.2896 98.604 53.9638 99.3473 53.0579 98.8558C51.9784 98.2696 50.9111 95.0928 50.9111 95.0928L51.8997 94.9377C51.8997 94.9377 51.0281 99.5971 59.5365 97.4457C59.5809 97.7438 59.6273 98.046 59.6737 98.3502Z" fill="black"/>
<path d="M59.3005 94.5066C58.0536 95.2298 55.126 95.5783 51.7182 95.7152C51.4074 95.7273 51.0947 95.7394 50.7759 95.7475C45.2516 95.9207 38.8012 95.6085 36.2308 95.4614C35.5064 95.4211 35.0908 95.3929 35.0908 95.3929L37.3465 93.8357L41.0549 92.478L48.8551 90.951L58.8505 90.673L58.9514 91.5292L59.3005 94.5066Z" fill="#33363D"/>
<path d="M51.7182 95.7233C51.4075 95.7354 51.0947 95.7475 50.7759 95.7556C50.3845 94.0997 49.1497 91.4527 49.1497 91.4527L50.1989 91.3137L51.7182 95.7233Z" fill="#63667E"/>
<path d="M9.63222 99.158C9.63222 99.158 9.19641 99.6616 8.52655 100.342C6.49277 102.407 2.30617 106.096 1.59192 102.305C0.85145 98.3744 4.19064 95.8583 5.70186 94.9276C6.12959 94.6637 6.41005 94.5247 6.41005 94.5247L9.63222 99.158Z" fill="#FFA2A2"/>
<path d="M47.0796 54.7592C47.0796 54.7592 44.717 53.2786 44.2771 53.4176C43.8373 53.5566 44.2771 55.5428 44.2771 55.5428C43.7073 56.6283 42.8064 57.5045 41.7046 58.0448C40.4417 58.704 39.2189 59.4372 38.0426 60.2405C37.132 60.1519 36.2128 60.2543 35.3442 60.5412C34.4755 60.8281 33.6765 61.2931 32.9985 61.9065C32.5245 62.2248 31.9881 62.4389 31.425 62.5347C30.8619 62.6306 30.2848 62.6059 29.732 62.4625C27.8999 61.9549 27.8091 59.4569 28.0634 58.5081C28.2651 57.7628 31.3198 55.8289 32.6353 55.0231C32.9985 54.8015 33.2285 54.6665 33.2285 54.6665C33.2285 54.6665 39.1644 54.4651 40.5041 51.9369C40.9163 51.1555 41.5308 50.4988 42.2837 50.0353L42.318 50.0171L42.4875 49.9164L42.5419 49.8862C43.1655 49.5431 43.8515 49.328 44.5596 49.2537C47.4589 51.1029 47.0796 54.7592 47.0796 54.7592Z" fill="#CED7E7"/>
<path opacity="0.1" d="M47.0796 54.7592C47.0796 54.7592 44.717 53.2786 44.2771 53.4176C43.8373 53.5566 44.2771 55.5428 44.2771 55.5428C43.7073 56.6283 42.8064 57.5045 41.7046 58.0448C40.4417 58.704 39.2189 59.4372 38.0426 60.2405C37.132 60.1519 36.2128 60.2543 35.3442 60.5412C34.4755 60.8281 33.6765 61.2931 32.9985 61.9065C32.5245 62.2248 31.9881 62.4389 31.425 62.5347C30.8619 62.6306 30.2848 62.6059 29.732 62.4625C27.8999 61.9549 27.8091 59.4569 28.0634 58.5081C28.2651 57.7628 31.3198 55.8289 32.6353 55.0231C32.9985 54.8015 33.2285 54.6665 33.2285 54.6665C33.2285 54.6665 39.1644 54.4651 40.5041 51.9369C40.9163 51.1555 41.5308 50.4988 42.2837 50.0353L42.318 50.0171L42.4875 49.9164L42.5419 49.8862C43.1655 49.5431 43.8515 49.328 44.5596 49.2537C47.4589 51.1029 47.0796 54.7592 47.0796 54.7592Z" fill="black"/>
<path opacity="0.1" d="M58.9514 91.5372C57.8397 90.4877 50.9192 92.3994 50.9192 92.3994C50.9192 92.3994 46.1535 93.7652 42.5177 93.9868C42.0228 94.0197 41.5264 94.0257 41.0307 94.005C39.5034 93.9264 37.9115 94.5428 36.5758 95.2821L36.2388 95.4836C35.5145 95.4433 35.0989 95.4151 35.0989 95.4151L37.3546 93.8579L41.063 92.5002L48.8632 90.9732L58.8586 90.6952L58.9514 91.5372Z" fill="black"/>
<path opacity="0.1" d="M8.52654 100.342C8.98858 97.2684 6.59969 95.4816 5.70184 94.9276C6.12958 94.6637 6.41004 94.5247 6.41004 94.5247L9.63826 99.158C9.63826 99.158 9.1964 99.6616 8.52654 100.342Z" fill="black"/>
<path d="M85.0839 58.4618C85.0839 58.4618 80.1386 59.0661 78.1634 61.6688C76.1881 64.2715 71.9208 64.0137 71.9208 64.0137C71.9208 64.0137 68.2124 65.9878 64.506 66.1107C62.3047 66.1832 61.2777 66.7352 60.8097 67.1723C60.429 67.538 60.0142 67.8666 59.5708 68.1534C57.8881 69.1969 57.6238 70.6775 57.7388 71.8197C57.883 73.1767 57.9537 74.5404 57.9507 75.905C57.9063 79.7325 58.5741 86.4084 58.5741 86.4084C58.5741 86.4084 60.0571 92.2081 58.9433 91.1606C57.8296 90.1131 50.9111 92.0228 50.9111 92.0228C50.9111 92.0228 46.1454 93.3886 42.5097 93.6122C42.0146 93.6444 41.5182 93.6498 41.0227 93.6283C39.4953 93.5497 37.9034 94.1662 36.5677 94.9075C35.4184 95.5548 34.3433 96.3255 33.3617 97.206C32.1793 94.279 32.6716 90.5139 33.059 88.568C33.24 87.6695 33.1929 86.7401 32.9218 85.8645L31.1362 80.1475C31.1362 80.1475 27.2442 81.473 25.39 84.9278C23.5358 88.3826 15.0698 95.0465 13.3991 95.4796C12.6345 95.681 12.1422 96.2753 11.8335 96.8675C11.4366 97.6594 10.8794 98.3605 10.1972 98.9263C9.56483 99.4578 9.02014 100.085 8.58304 100.786C9.69678 96.5896 5.55658 94.5529 5.55658 94.5529C5.55658 94.5529 7.22315 93.9969 7.9031 91.781C8.58304 89.5651 11.7366 87.2787 11.7366 87.2787C11.7366 87.2787 14.9507 81.6019 16.8049 80.6753C18.6591 79.7486 21.9963 75.3088 21.9963 75.3088C22.6742 70.3109 25.8298 67.7203 25.8298 67.7203C25.8298 67.7203 29.2921 66.2396 29.6633 65.0169C29.7925 64.5978 30.2162 63.8183 30.7226 62.9762C31.1947 62.1825 31.7314 61.3384 32.1652 60.6797C32.599 60.021 32.94 59.5133 32.94 59.5133L38.4885 59.461L39.4973 59.4509L42.4532 53.895C42.4532 53.895 43.5043 52.8475 45.3263 54.0803C45.8501 54.4295 46.4728 54.6005 47.1018 54.5678C47.9277 54.5145 48.7285 54.263 49.4362 53.8346C56.4818 51.9208 59.4477 55.5428 59.4477 55.5428C59.4477 55.5428 64.3284 55.1299 64.5746 55.5428C64.8207 55.9558 67.3549 55.5428 67.3549 55.5428L74.0918 54.8821L84.4745 53.2181L85.0839 58.4618Z" fill="#CED7E7"/>
<path d="M44.5455 56.6105L41.3939 61.7917C41.3939 61.7917 32.8048 68.0244 34.0416 63.1494C34.242 62.3294 34.3135 61.4833 34.2535 60.6414C34.2353 60.313 34.197 59.9847 34.1486 59.6604C33.9246 58.316 33.5286 57.006 32.9702 55.7624C32.9077 55.6133 32.8431 55.4703 32.7685 55.3293C32.6716 55.1278 32.5768 54.9264 32.482 54.737C32.0842 53.9329 31.6319 53.1569 31.1281 52.4143C31.1281 52.4143 40.4597 44.8258 40.7684 49.576C40.8361 50.649 41.0815 51.7035 41.4948 52.6964L41.5674 52.8636C42.0867 54.0345 42.8336 55.091 43.7646 55.9719C44.0081 56.2044 44.2692 56.4179 44.5455 56.6105Z" fill="#FFA2A2"/>
<path d="M32.0643 61.423L33.517 65.74L39.4267 66.6969L42.8163 62.9741C42.8163 62.9741 44.7634 60.1982 44.8864 60.1358C45.0095 60.0733 45.3182 57.4223 45.3182 57.4223L45.6814 55.9235L43.3954 55.156L40.1813 58.641L38.8678 59.4468L37.4091 59.8014L32.5667 61.2115L32.0643 61.423Z" fill="#CED7E7"/>
<path opacity="0.1" d="M47.0796 55.1299C47.0796 55.1299 45.4655 55.1137 45.0358 55.2527C44.606 55.3917 44.2771 55.9115 44.2771 55.9115C43.7078 56.9978 42.8067 57.8748 41.7046 58.4155C40.4417 59.0747 39.2189 59.8079 38.0426 60.6112C37.132 60.522 36.2127 60.6242 35.3439 60.9111C34.4752 61.198 33.6763 61.6634 32.9985 62.2772C32.3224 62.7303 31.5268 62.9729 30.7125 62.9742C31.1847 62.1805 31.7213 61.3364 32.1551 60.6777C34.1486 60.4601 38.3675 59.6886 38.3675 59.6886L38.4784 59.4589C38.8698 58.6532 40.1954 55.9316 40.6837 55.1097C41.2527 54.1508 43.0363 51.1553 43.0928 51.0606L41.3415 52.6601L42.2776 50.408L42.3119 50.3898L42.4814 50.2891L42.5359 50.2589C43.1594 49.9158 43.8455 49.7007 44.5535 49.6263C46.7629 51.0365 47.0776 53.474 47.1018 54.5719C47.105 54.7581 47.0976 54.9444 47.0796 55.1299Z" fill="black"/>
<path opacity="0.1" d="M32.6293 54.6544L33.0873 55.6617C33.0873 55.6617 33.049 55.6939 32.9682 55.7543C32.9057 55.6052 32.8411 55.4622 32.7665 55.3212C32.6696 55.1198 32.5748 54.9183 32.48 54.729C32.5284 54.7008 32.5728 54.6705 32.6172 54.6464L32.6293 54.6544Z" fill="black"/>
<path opacity="0.1" d="M43.7727 55.9719C43.2168 56.6839 42.5107 57.2651 41.7046 57.6741C40.4414 58.3336 39.2186 59.0675 38.0426 59.8719C36.7308 59.7423 35.4103 60.0105 34.2535 60.6414C34.2353 60.3131 34.197 59.9847 34.1486 59.6604C36.1339 59.3542 38.3674 58.9453 38.3674 58.9453C38.3674 58.9453 40.1067 55.3373 40.6837 54.3664C40.8855 54.04 41.2164 53.4699 41.5755 52.8636C42.0948 54.0346 42.8416 55.0911 43.7727 55.9719Z" fill="black"/>
<path d="M47.0796 54.7592C47.0796 54.7592 45.4655 54.7431 45.0337 54.8821C44.602 55.0211 44.2771 55.5428 44.2771 55.5428C43.7073 56.6283 42.8064 57.5045 41.7046 58.0448C40.4417 58.704 39.2189 59.4372 38.0426 60.2405C37.132 60.1519 36.2128 60.2543 35.3442 60.5412C34.4755 60.8281 33.6765 61.2931 32.9985 61.9065C32.5245 62.2248 31.9881 62.4389 31.425 62.5347C30.8619 62.6306 30.2848 62.606 29.732 62.4625C27.8999 61.9549 27.8091 59.4569 28.0634 58.5081C28.2651 57.7628 31.3198 55.8289 32.6353 55.0231L33.0933 56.0404C32.1391 56.7707 31.1398 57.4401 30.1012 58.0448C28.1299 59.2232 29.1267 60.4964 29.1267 60.4964C29.8359 60.3737 30.5562 60.3264 31.2754 60.3554C32.2964 60.4239 38.3675 59.3139 38.3675 59.3139C38.3675 59.3139 40.1067 55.704 40.6837 54.735C41.2607 53.7661 43.0363 50.7806 43.0928 50.6859L41.3415 52.2975L42.2776 50.0453L42.3119 50.0272L42.4814 49.9265L42.5359 49.8963C43.1594 49.5532 43.8455 49.3381 44.5535 49.2637C47.4589 51.1029 47.0796 54.7592 47.0796 54.7592Z" fill="#CED7E7"/>
<path opacity="0.1" d="M41.5029 52.7004C40.5951 54.1009 39.2187 55.1341 37.619 55.6156C36.0193 56.097 34.3002 55.9956 32.7685 55.3293C32.3023 54.3145 31.7537 53.3396 31.1281 52.4143C31.1281 52.4143 40.4597 44.8258 40.7684 49.576C40.8382 50.6509 41.0864 51.7067 41.5029 52.7004Z" fill="black"/>
<path d="M42.4532 48.5083C42.4532 48.6843 42.4471 48.8575 42.435 49.0281C42.3023 50.8707 41.4506 52.5878 40.063 53.8099C38.6754 55.0321 36.8628 55.6616 35.0151 55.5632C33.1674 55.4647 31.4322 54.6461 30.1828 53.2835C28.9333 51.9209 28.2695 50.1231 28.334 48.2768C28.3985 46.4305 29.1862 44.6832 30.5277 43.4108C31.8692 42.1384 33.6573 41.4425 35.5074 41.4729C37.3575 41.5032 39.1217 42.2574 40.4207 43.5731C41.7196 44.8888 42.4494 46.6609 42.4532 48.5083Z" fill="#FFA2A2"/>
<path opacity="0.1" d="M24.1552 71.171C24.1552 71.171 25.7067 74.0698 27.6154 75.6653C29.5241 77.2607 30.6419 79.7385 30.6419 79.7385C30.6419 79.7385 30.087 74.934 24.1552 71.171Z" fill="black"/>
<path opacity="0.1" d="M21.7441 78.4513C21.7441 78.4513 27.1917 77.0935 29.9337 78.4513H21.7441Z" fill="black"/>
<path opacity="0.1" d="M19.7668 86.5434L25.6281 84.5289C25.6281 84.5289 21.8732 87.2122 19.7668 86.5434Z" fill="black"/>
<path opacity="0.1" d="M9.6322 94.43C9.6322 94.43 12.1664 94.3072 12.9694 95.1089C12.9694 95.1089 10.4978 95.2942 9.6322 94.43Z" fill="black"/>
<path opacity="0.1" d="M68.7652 55.4018C68.7652 55.4018 63.0835 58.77 62.8313 64.199L68.7652 55.4018Z" fill="black"/>
<path opacity="0.1" d="M75.6292 60.4964C75.6292 60.4964 68.5836 61.9166 67.4093 62.6559C66.2351 63.3952 63.7029 63.7659 63.7029 63.7659C63.7029 63.7659 73.8981 62.4101 75.6292 60.4964Z" fill="black"/>
<path opacity="0.1" d="M54.9625 90.2722C54.45 90.804 48.1247 92.3027 42.4713 93.5557C41.9582 93.5896 41.4436 93.5957 40.9298 93.5739C39.346 93.4933 37.7016 94.1278 36.3094 94.8893C34.6025 95.2519 33.4989 95.4796 33.4989 95.4796C33.4989 95.4796 31.6406 94.0171 34.203 90.7153C36.7654 87.4136 37.2154 82.2042 37.2154 82.2042L48.6231 79.2913C48.6231 79.2913 51.7 83.5217 53.1729 84.2006C54.6458 84.8794 55.9108 89.2931 54.9625 90.2722Z" fill="black"/>
<path d="M54.559 90.4192C54.0627 90.9389 47.9633 92.3934 42.5117 93.6121C42.0167 93.6444 41.5203 93.6497 41.0247 93.6283C39.4973 93.5497 37.9054 94.1661 36.5697 94.9074C34.9233 95.258 33.858 95.4795 33.858 95.4795C33.858 95.4795 32.0664 94.0593 34.538 90.8463C37.0096 87.6332 37.4414 82.5769 37.4414 82.5769L48.4415 79.7405C48.4415 79.7405 51.4075 83.85 52.8279 84.5108C54.2483 85.1715 55.467 89.4704 54.559 90.4192Z" fill="#CED7E7"/>
<path opacity="0.1" d="M45.6289 130.862L42.4532 132.739C42.2666 132.037 42.1244 131.324 42.0275 130.604C42.4895 130.989 45.6289 130.862 45.6289 130.862Z" fill="black"/>
<path opacity="0.1" d="M42.6267 133.388C43.7485 133.174 46.4118 132.642 47.8725 132.143C46.549 132.787 44.154 133.865 42.7941 133.956C42.7316 133.768 42.6791 133.575 42.6267 133.388Z" fill="black"/>
<path opacity="0.1" d="M48.8087 131.667C48.6917 131.81 48.3487 131.972 47.8746 132.135C48.4415 131.869 48.8087 131.667 48.8087 131.667Z" fill="black"/>
<path opacity="0.1" d="M50.7255 147.179C49.8256 147.253 48.3628 147.132 47.4973 147.044L47.2027 146.226C48.1288 146.325 49.9669 146.48 50.7255 146.254C51.7605 145.948 52.0713 147.072 50.7255 147.179Z" fill="black"/>
<path opacity="0.1" d="M58.7658 130.783C58.6165 130.763 56.2155 130.493 54.67 130.485C54.67 129.957 54.6962 129.478 54.7265 129.089C55.7918 129.538 58.6064 130.729 58.7658 130.783Z" fill="black"/>
<path d="M56.9983 157.314C56.7199 158.46 52.2246 158.258 52.2246 158.258L51.8533 158.75C51.8533 158.75 50.1242 159.382 48.8269 159.012C47.5295 158.641 43.581 158.72 43.581 158.72V157.453C43.581 155.803 45.4352 155.263 45.4352 155.263C45.4352 155.263 46.9949 153.968 47.5356 152.656C47.8728 151.844 48.2644 151.056 48.7078 150.297C48.7078 150.297 47.2572 148.539 51.1492 148.081C54.9827 147.638 53.4796 151.113 53.4372 151.21C53.4997 151.153 54.9383 149.862 55.7373 150.269C56.3144 150.565 56.8369 153.369 57.0003 155.4C57.075 156.262 57.079 156.977 56.9983 157.314Z" fill="#CED7E7"/>
<path opacity="0.1" d="M56.9983 157.314C56.7199 158.46 52.2246 158.258 52.2246 158.258L51.8533 158.75C51.8533 158.75 50.1242 159.382 48.8269 159.012C47.5295 158.641 43.581 158.72 43.581 158.72V157.511C45.9578 157.628 50.7154 157.785 51.7847 157.235C51.7847 157.235 53.066 156.911 53.3605 156.695C53.6087 156.512 56.2195 155.66 56.9923 155.408C57.075 156.262 57.079 156.977 56.9983 157.314Z" fill="black"/>
<path d="M66.8384 157.44C62.7446 157.888 60.6119 156.899 60.6119 156.899C60.2729 156.691 59.9828 156.413 59.7617 156.083C59.5405 155.753 59.3935 155.379 59.3307 154.987C59.1148 153.645 57.0589 152.289 57.0589 152.289C57.0589 152.289 54.5267 152.535 54.216 151.794C54.1414 151.479 54.1128 151.156 54.1313 150.833C54.1313 148.845 54.6296 144.669 55.2046 144.729C55.8826 144.804 57.9789 147.576 58.1887 147.854C58.0051 147.555 56.1812 144.451 60.2265 144.083C60.2265 144.083 63.5314 142.217 63.1925 146.566L64.5826 149.558C64.5826 149.558 67.3186 153.587 67.9965 153.446C68.3213 153.379 69.0053 154.185 69.1869 155.096C69.3826 156.089 68.9771 157.207 66.8384 157.44Z" fill="#CED7E7"/>
<path opacity="0.1" d="M42.4532 48.5083C42.4532 48.6842 42.4471 48.8575 42.435 49.028L42.2635 49.0925L41.5997 49.3342C41.4878 49.3821 41.3682 49.4094 41.2466 49.4148C41.1518 49.4109 41.059 49.3854 40.9755 49.3404C40.8919 49.2954 40.8198 49.2319 40.7644 49.1549C40.6689 49.0092 40.6005 48.8475 40.5626 48.6775L40.0602 46.7497C39.9594 46.3669 39.804 45.9257 39.3742 45.7827C39.2487 45.7553 39.1253 45.7189 39.005 45.6739C38.7367 45.547 38.6802 45.2489 38.5894 44.9991C38.3876 44.4169 37.8489 43.9516 37.2658 43.589C36.8716 43.3134 36.4032 43.1632 35.9221 43.1579C35.6644 43.1619 35.4153 43.2511 35.2139 43.4117C34.7922 43.7682 34.8507 44.2497 34.9011 44.7573C34.9516 45.265 35.0868 45.8069 34.9375 46.3145C34.8366 46.6449 34.6207 46.9531 34.5824 47.2956C34.5501 47.5716 34.6409 47.8516 34.6247 48.1275C34.6216 48.2766 34.568 48.4202 34.4728 48.5351C34.3776 48.6499 34.2462 48.7292 34.1001 48.7601C34.0739 48.5929 33.8298 48.5385 33.6663 48.4478C33.2971 48.2464 33.2769 47.8072 33.2931 47.4406C33.3213 46.8927 33.3476 46.3427 33.3738 45.7948C33.2108 47.0203 32.9579 48.2323 32.6172 49.4208C32.5752 49.6275 32.4791 49.8193 32.3387 49.9768C32.256 50.0591 32.1505 50.1148 32.0358 50.1367C31.9211 50.1586 31.8024 50.1457 31.6951 50.0997C31.5703 50.0211 31.4779 49.9002 31.4348 49.7593C31.1771 49.121 31.0881 48.4273 31.1766 47.7448C30.9526 48.6372 30.7287 49.5397 30.2969 50.3777C30.1254 50.7101 29.8651 51.0707 29.4434 51.1372C29.3148 51.1412 29.1872 51.1622 29.0641 51.1996C29.015 51.2229 28.9705 51.255 28.933 51.2943C28.5218 50.3359 28.3292 49.2982 28.3692 48.2564C28.4091 47.2145 28.6806 46.1946 29.1639 45.2704C29.6472 44.3462 30.3303 43.5408 31.1637 42.9127C31.9972 42.2845 32.96 41.8492 33.9827 41.6383C35.0054 41.4273 36.0622 41.4461 37.0767 41.6932C38.0912 41.9402 39.038 42.4094 39.8485 43.0668C40.6591 43.7241 41.3131 44.5532 41.7632 45.494C42.2133 46.4347 42.4483 47.4637 42.4511 48.5063L42.4532 48.5083Z" fill="black"/>
<path d="M35.2139 43.0511C35.4148 42.8894 35.664 42.7994 35.9221 42.7953C36.4031 42.8012 36.8713 42.9514 37.2658 43.2264C37.8489 43.5809 38.3796 44.0442 38.5894 44.6365C38.6802 44.8863 38.7347 45.1864 38.9929 45.3133C39.1138 45.3562 39.2371 45.3919 39.3621 45.4201C39.7939 45.5631 39.9493 46.0043 40.0481 46.3871L40.5546 48.3149C40.5875 48.4848 40.6525 48.6468 40.7462 48.7923C40.8014 48.8697 40.8735 48.9335 40.957 48.9789C41.0406 49.0243 41.1334 49.05 41.2285 49.0542C41.3509 49.0488 41.4713 49.0208 41.5836 48.9716L42.2474 48.7299C42.5964 48.603 42.9757 48.4519 43.1351 48.1578C43.2187 47.968 43.2467 47.7585 43.2158 47.5534C43.1771 46.938 43.0907 46.3265 42.9576 45.7243L43.7202 46.242C43.9039 46.3649 44.1339 46.4958 44.3518 46.4273C44.4226 46.401 44.4863 46.3585 44.5377 46.3032C44.5892 46.248 44.6271 46.1815 44.6484 46.1091C44.7856 45.7303 44.6867 45.2771 44.9732 44.9649C45.0418 44.8923 45.1265 44.8299 45.1871 44.7533C45.4473 44.4189 45.1386 43.9657 45.2456 43.5749C45.3486 43.6154 45.462 43.621 45.5685 43.5908C45.675 43.5606 45.7685 43.4962 45.8347 43.4077C45.9396 43.2387 45.9909 43.0422 45.982 42.8436C46.0425 41.7054 46.0708 40.4726 45.29 39.5459C45.4332 38.6153 44.4446 37.602 43.351 37.4751C43.0786 37.4428 42.7457 37.4267 42.6267 37.2192C42.5844 37.1194 42.5658 37.0112 42.5722 36.903C42.544 36.5504 42.3079 36.2362 42.0799 35.9401C41.9888 35.8094 41.877 35.6945 41.749 35.5996C41.3879 35.3619 40.8734 35.4264 40.4254 35.5069C39.6036 35.6533 38.7871 35.8178 37.976 36.0005C37.8809 35.6024 37.8871 35.1869 37.9942 34.7918C38.0769 34.4937 38.2181 34.1875 38.0648 33.8893C38.0258 33.8148 37.9681 33.7517 37.8974 33.7062C37.8267 33.6606 37.7453 33.6342 37.6613 33.6295C37.5546 33.6267 37.4493 33.6551 37.3586 33.7113C37.2679 33.7675 37.1957 33.849 37.1508 33.9457C36.6862 34.6394 36.3651 35.4188 36.2066 36.2382C35.9017 36.0229 35.5473 35.8878 35.1763 35.8456C34.8053 35.8033 34.4296 35.8552 34.084 35.9965C33.9096 36.0944 33.72 36.1625 33.5231 36.1979C33.359 36.1956 33.1983 36.1508 33.0568 36.0678C32.9153 35.9848 32.7979 35.8665 32.716 35.7245C32.4941 35.382 32.3932 34.9751 31.9614 34.7515C31.8654 34.7009 31.7584 34.6744 31.6497 34.6744C31.5411 34.6744 31.4341 34.7009 31.338 34.7515C30.767 35.0839 31.4792 35.9078 31.0555 36.3409C30.9379 36.442 30.8005 36.5175 30.652 36.5625L29.5927 36.9513C29.0281 37.1922 28.4288 37.3424 27.8172 37.3965C27.1151 37.4247 26.4049 37.2092 25.7148 37.3542C25.9923 37.6697 26.361 37.8914 26.7701 37.9888C27.0202 38.0512 27.2845 38.0714 27.5287 38.1519C27.6471 38.1782 27.7568 38.2342 27.8475 38.3146C27.9382 38.3949 28.0069 38.497 28.0472 38.6112C28.1017 38.8953 27.8273 39.1692 27.8818 39.4533C27.9232 39.5752 28.0071 39.6782 28.1182 39.7437C28.2292 39.8091 28.3601 39.8326 28.4871 39.8098L27.2341 40.6156C27.0081 40.7607 26.7559 40.9722 26.8407 41.2018L27.2442 41.3187L26.1567 42.8759C26.0154 43.0337 25.9347 43.2364 25.9287 43.448C25.9393 43.5022 25.9609 43.5537 25.9922 43.5992C26.0236 43.6448 26.064 43.6834 26.1109 43.7126C26.1579 43.7419 26.2103 43.7613 26.265 43.7694C26.3198 43.7776 26.3756 43.7745 26.4291 43.7602C26.1685 44.0312 25.9629 44.3499 25.8238 44.6989C25.7985 44.7446 25.7844 44.7956 25.7826 44.8478C25.7808 44.9 25.7915 44.9518 25.8137 44.9991C25.8616 45.0509 25.9212 45.0905 25.9875 45.1147C26.0538 45.1388 26.125 45.1469 26.195 45.1381C26.7801 45.1381 27.3229 44.7352 27.4056 44.2376C27.5852 44.4391 27.3935 44.6768 27.222 44.8802C26.534 45.7062 25.8318 46.5482 25.4667 47.5111C25.1015 48.474 25.1176 49.5981 25.8016 50.4261C25.953 50.5863 26.0882 50.761 26.2051 50.9478C26.423 51.3628 26.2979 51.8946 26.6369 52.2471C26.9094 51.5013 27.24 50.7779 27.6255 50.0836C27.6037 50.3278 27.568 50.5706 27.5186 50.8108C27.5023 50.938 27.527 51.067 27.589 51.1793C27.651 51.2916 27.7472 51.3812 27.8636 51.4353C28.2187 51.5642 28.5879 51.2883 28.82 51.0324C28.8777 50.9563 28.9514 50.8938 29.0359 50.8491C29.1585 50.8125 29.2853 50.7915 29.4132 50.7867C29.8348 50.7202 30.0931 50.3616 30.2666 50.0272C30.6984 49.1912 30.9244 48.2887 31.1463 47.3923C31.0572 48.0749 31.1469 48.769 31.4066 49.4067C31.4483 49.5478 31.5401 49.6689 31.6648 49.7472C31.7725 49.7924 31.8911 49.8046 32.0057 49.7824C32.1203 49.7602 32.2257 49.7044 32.3085 49.6223C32.4493 49.4651 32.5454 49.2731 32.5869 49.0663C32.9269 47.8775 33.1797 46.6657 33.3435 45.4403L33.2628 47.0861C33.2447 47.4567 33.2628 47.8919 33.6341 48.0933C33.8015 48.184 34.0376 48.2384 34.0699 48.4035C34.2161 48.374 34.3478 48.2953 34.4429 48.1806C34.538 48.0658 34.5908 47.922 34.5924 47.773C34.6106 47.495 34.5198 47.217 34.5521 46.939C34.5904 46.5986 34.8083 46.2904 34.9072 45.958C35.0565 45.4523 34.9254 44.9225 34.8709 44.4028C34.8164 43.8831 34.7861 43.4057 35.2139 43.0511Z" fill="#896363"/>
<path opacity="0.1" d="M66.8384 157.44C62.7446 157.888 60.6119 156.899 60.6119 156.899C60.2729 156.691 59.9828 156.413 59.7617 156.083C59.5405 155.753 59.3935 155.379 59.3307 154.987C59.1148 153.645 57.0589 152.289 57.0589 152.289C57.0589 152.289 54.5267 152.535 54.216 151.794C54.1414 151.479 54.1128 151.156 54.1313 150.833C55.0674 151.057 57.2243 151.57 57.8921 151.762C58.7597 152.007 61.2939 156.111 61.2939 156.111C63.7332 157.392 67.7705 155.748 69.1869 155.104C69.3826 156.089 68.9771 157.207 66.8384 157.44Z" fill="black"/>
<path opacity="0.1" d="M48.7079 150.297C48.7079 150.297 47.461 152.207 53.4372 151.22L48.7079 150.297Z" fill="black"/>
<path opacity="0.1" d="M58.1907 147.854C58.1907 147.854 64.4938 149.221 63.1945 146.566L58.1907 147.854Z" fill="black"/>
<g opacity="0.1">
<path d="M27.9262 39.1108C27.8916 39.1999 27.8805 39.2963 27.8939 39.3909C27.9203 39.4996 27.9884 39.5936 28.0835 39.6527L28.5093 39.3788C28.3963 39.3987 28.2799 39.3838 28.1757 39.3359C28.0715 39.288 27.9844 39.2095 27.9262 39.1108Z" fill="black"/>
<path d="M26.7721 37.9283C27.0243 37.9908 27.2886 38.0109 27.5327 38.0915C27.7366 38.1456 27.9111 38.2772 28.019 38.4581C28.0537 38.3698 28.0648 38.274 28.0513 38.1801C28.011 38.0659 27.9423 37.9638 27.8515 37.8835C27.7608 37.8031 27.6511 37.7471 27.5327 37.7208C27.2886 37.6403 27.0243 37.6201 26.7721 37.5577C26.5263 37.4963 26.2934 37.3919 26.0841 37.2495C25.9613 37.2541 25.8392 37.2689 25.7189 37.2938C25.9959 37.6088 26.3638 37.8304 26.7721 37.9283Z" fill="black"/>
<path d="M27.6558 49.6525C27.2696 50.3468 26.9384 51.0702 26.6651 51.816C26.3282 51.4635 26.4513 50.9317 26.2334 50.5167C26.1171 50.3294 25.9819 50.1546 25.8298 49.995C25.4861 49.5737 25.2873 49.0531 25.2629 48.5103C25.207 49.1784 25.41 49.8425 25.8298 50.3656C25.9819 50.5253 26.1171 50.7001 26.2334 50.8874C26.4513 51.3024 26.3282 51.8322 26.6651 52.1867C26.9216 51.4892 27.2284 50.8113 27.5832 50.1581C27.6273 49.9931 27.6517 49.8233 27.6558 49.6525Z" fill="black"/>
<path d="M25.9872 43.1337C25.9514 43.2133 25.9368 43.3007 25.9448 43.3875C25.9564 43.4494 25.9824 43.5076 26.0205 43.5577C26.0587 43.6077 26.1081 43.6481 26.1648 43.6756C26.249 43.553 26.3428 43.4371 26.4452 43.3291C26.358 43.3555 26.2643 43.3504 26.1806 43.3147C26.0968 43.2789 26.0284 43.2149 25.9872 43.1337Z" fill="black"/>
<path d="M37.9296 35.1987C37.9384 35.0408 37.9634 34.8842 38.0043 34.7314C38.0769 34.4735 38.1899 34.2116 38.1193 33.9498C38.091 34.0868 38.0426 34.2257 38.0043 34.3527C37.9293 34.628 37.904 34.9145 37.9296 35.1987Z" fill="black"/>
<path d="M31.1342 34.9731C31.1116 35.2075 31.13 35.4441 31.1887 35.6722C31.212 35.4378 31.1935 35.2011 31.1342 34.9731Z" fill="black"/>
<path d="M27.4278 43.8065C27.337 44.296 26.7922 44.6969 26.2172 44.707C26.0899 44.717 25.9636 44.6781 25.8641 44.5982L25.846 44.6385C25.8208 44.6842 25.8066 44.7351 25.8045 44.7871C25.8024 44.8392 25.8125 44.8911 25.8339 44.9386C25.8824 44.9901 25.9424 45.0293 26.0091 45.0531C26.0757 45.077 26.147 45.0847 26.2172 45.0756C26.4554 45.0716 26.6883 45.0056 26.8931 44.8843C27.0122 44.7372 27.1332 44.5922 27.2523 44.4491C27.3154 44.3767 27.3733 44.2999 27.4258 44.2195C27.4301 44.2056 27.4335 44.1915 27.4359 44.1772V44.1872C27.4785 44.1325 27.5009 44.0648 27.4995 43.9955C27.498 43.9261 27.4727 43.8594 27.4278 43.8065Z" fill="black"/>
<path d="M26.9517 40.799C26.9049 40.8411 26.871 40.8957 26.8538 40.9563C26.8367 41.0168 26.837 41.081 26.8548 41.1414L27.0445 41.1958L27.2583 40.8876L26.9517 40.799Z" fill="black"/>
<path d="M45.1971 44.3343C45.1366 44.4109 45.0519 44.4733 44.9833 44.5358C44.6948 44.848 44.7956 45.3013 44.6584 45.68C44.6369 45.7523 44.5989 45.8186 44.5475 45.8738C44.496 45.929 44.4325 45.9716 44.3618 45.9983C44.1439 46.0668 43.9139 45.9358 43.7303 45.8129L42.9677 45.2952C42.9979 45.4362 43.0262 45.5793 43.0524 45.7223L43.7303 46.1816C43.9139 46.3065 44.1439 46.4374 44.3618 46.3689C44.4323 46.342 44.4957 46.2993 44.5471 46.2441C44.5985 46.189 44.6366 46.1228 44.6584 46.0506C44.7956 45.6719 44.6948 45.2187 44.9833 44.9064C45.0519 44.8319 45.1366 44.7715 45.1971 44.6949C45.2501 44.6136 45.2852 44.522 45.3002 44.4262C45.3151 44.3304 45.3096 44.2325 45.2839 44.1389C45.2704 44.2098 45.2407 44.2767 45.1971 44.3343Z" fill="black"/>
<path d="M43.2219 47.4628C43.2135 47.5549 43.1874 47.6444 43.1452 47.7267C42.9858 48.0208 42.6065 48.1719 42.2555 48.2988L41.5937 48.5405C41.4811 48.5888 41.3609 48.6168 41.2386 48.6231C41.1435 48.619 41.0507 48.5932 40.9671 48.5478C40.8836 48.5025 40.8115 48.4386 40.7563 48.3613C40.6601 48.2159 40.5917 48.054 40.5546 47.8838L40.0502 45.956C39.9493 45.5732 39.7959 45.1321 39.3642 44.989C39.2391 44.9608 39.1158 44.9252 38.9949 44.8823C38.7266 44.7534 38.6701 44.4552 38.5914 44.2054C38.3897 43.6212 37.8509 43.1579 37.2678 42.7953C36.8732 42.5206 36.4051 42.3705 35.9241 42.3642C35.666 42.368 35.4167 42.4581 35.2159 42.62C34.879 42.9041 34.8487 43.2687 34.8749 43.6635C34.8827 43.5338 34.9169 43.407 34.9755 43.2909C35.0342 43.1748 35.116 43.072 35.2159 42.9887C35.4176 42.8283 35.6664 42.7385 35.9241 42.7328C36.4048 42.741 36.8724 42.891 37.2678 43.1639C37.8509 43.5205 38.3816 43.9838 38.5914 44.5741C38.6802 44.8239 38.7367 45.122 38.9949 45.2509C39.1158 45.2938 39.2391 45.3295 39.3642 45.3577C39.7959 45.5007 39.9493 45.9419 40.0502 46.3246L40.5546 48.2505C40.5912 48.4209 40.6596 48.5828 40.7563 48.7279C40.8111 48.8059 40.883 48.8702 40.9666 48.916C41.0502 48.9617 41.1433 48.9877 41.2386 48.9918C41.3607 48.9844 41.4808 48.9565 41.5937 48.9092L42.2514 48.6715C42.6025 48.5446 42.9818 48.3935 43.1412 48.0994C43.2248 47.9096 43.2528 47.7001 43.2219 47.495C43.2239 47.491 43.2239 47.4789 43.2219 47.4628Z" fill="black"/>
<path d="M45.9921 42.4266C46.001 42.6251 45.9497 42.8217 45.8448 42.9907C45.7786 43.0792 45.685 43.1435 45.5786 43.1738C45.4721 43.204 45.3586 43.1984 45.2557 43.1579C45.2268 43.2906 45.2268 43.428 45.2557 43.5608V43.5325C45.3586 43.5731 45.4721 43.5787 45.5786 43.5484C45.685 43.5182 45.7786 43.4539 45.8448 43.3653C45.9494 43.1963 46.0008 42.9998 45.9921 42.8013C46.0103 42.4729 46.0244 42.1365 46.0163 41.8041C46.0123 42.0076 46.0022 42.2252 45.9921 42.4266Z" fill="black"/>
<path d="M31.1766 46.9551C30.9875 47.8648 30.6923 48.7491 30.2969 49.5901C30.1234 49.9245 29.8651 50.283 29.4414 50.3495C29.3136 50.3547 29.1868 50.3757 29.0641 50.412C28.9806 50.4572 28.9077 50.5197 28.8502 50.5953C28.6182 50.8572 28.245 51.1331 27.8939 50.9982C27.8106 50.9659 27.7371 50.9128 27.6802 50.844C27.6233 50.7753 27.5851 50.6931 27.569 50.6053C27.569 50.6537 27.5529 50.7 27.5489 50.7464C27.5307 50.8735 27.5546 51.003 27.6169 51.1153C27.6791 51.2277 27.7764 51.3167 27.8939 51.3688C28.249 51.4998 28.6182 51.2218 28.8502 50.9659C28.9083 50.8915 28.9811 50.8298 29.0641 50.7846C29.1864 50.7464 29.3134 50.7254 29.4414 50.7222C29.8651 50.6557 30.1234 50.2971 30.2969 49.9627C30.6747 49.1649 30.9584 48.326 31.1423 47.4628C31.1426 47.293 31.154 47.1234 31.1766 46.9551Z" fill="black"/>
<path d="M33.3738 45.0092C33.21 46.2346 32.9571 47.4464 32.6172 48.6352C32.5758 48.8424 32.4788 49.0346 32.3367 49.1912C32.2541 49.2736 32.1487 49.3294 32.034 49.3517C31.9193 49.3739 31.8007 49.3615 31.6931 49.3161C31.5698 49.2367 31.4789 49.116 31.4369 48.9756C31.27 48.5573 31.1745 48.114 31.1544 47.6642C31.1281 48.2391 31.2266 48.8129 31.4429 49.3463C31.4848 49.4872 31.5757 49.6086 31.6992 49.6888C31.8068 49.7337 31.9254 49.7458 32.0399 49.7236C32.1544 49.7013 32.2598 49.6458 32.3428 49.5639C32.4846 49.407 32.5814 49.215 32.6232 49.0079C32.9463 47.8772 33.1904 46.7255 33.3536 45.5611L33.3738 45.0092Z" fill="black"/>
<path d="M34.9354 45.533C34.8366 45.8653 34.6207 46.1715 34.5824 46.514C34.5692 46.6244 34.5692 46.736 34.5824 46.8464C34.6308 46.52 34.8346 46.2239 34.9294 45.9036C34.9934 45.6696 35.0146 45.426 34.9919 45.1844C34.985 45.3022 34.9661 45.419 34.9354 45.533Z" fill="black"/>
<path d="M34.1001 47.9785C34.0719 47.8133 33.8298 47.7589 33.6643 47.6683C33.5493 47.5941 33.4551 47.492 33.3905 47.3715C33.3259 47.2509 33.2931 47.116 33.2951 46.9793V47.0256C33.2769 47.3963 33.2951 47.8314 33.6663 48.0329C33.8318 48.1235 34.0699 48.1759 34.1021 48.3431C34.2482 48.3125 34.3795 48.2332 34.4745 48.1183C34.5694 48.0033 34.6224 47.8595 34.6247 47.7106C34.6294 47.6151 34.626 47.5194 34.6146 47.4245C34.5997 47.5597 34.5416 47.6865 34.4489 47.7863C34.3563 47.886 34.234 47.9534 34.1001 47.9785Z" fill="black"/>
</g>
<path d="M96.99 161H73.4865C73.209 161.001 72.9345 160.942 72.6812 160.829C72.4279 160.716 72.2015 160.55 72.017 160.343C71.8324 160.137 71.6939 159.893 71.6105 159.629C71.5272 159.364 71.5009 159.085 71.5334 158.81L77.2554 110.262L77.3745 109.236C77.4308 108.759 77.6606 108.319 78.0202 108C78.3798 107.681 78.8443 107.504 79.3255 107.504H91.6654C92.1501 107.504 92.6177 107.683 92.9782 108.007C93.3387 108.33 93.5668 108.775 93.6185 109.256L93.7214 110.229L98.9471 158.828C98.9766 159.102 98.9479 159.38 98.8629 159.642C98.778 159.904 98.6386 160.145 98.454 160.35C98.2693 160.555 98.0436 160.719 97.7913 160.831C97.5391 160.943 97.266 161 96.99 161Z" fill="#4E5A86"/>
<path opacity="0.1" d="M78.8776 113.31C78.8776 113.31 79.7412 135.334 76.406 143.728C76.406 143.728 76.753 145.517 77.6912 143.728C78.6294 141.939 81.8435 123.305 80.298 113.62C80.298 113.618 79.9813 112.568 78.8776 113.31Z" fill="black"/>
<path opacity="0.1" d="M83.0178 113.31C83.0178 113.31 83.8814 135.334 80.5462 143.728C80.5462 143.728 80.8932 145.517 81.8314 143.728C82.7696 141.939 85.9837 123.305 84.4382 113.62C84.4382 113.618 84.1295 112.568 83.0178 113.31Z" fill="black"/>
<path opacity="0.1" d="M93.0959 113.31C93.0959 113.31 92.2304 135.334 95.5675 143.728C95.5675 143.728 95.2185 145.517 94.2803 143.728C93.3421 141.939 90.1239 123.303 91.6674 113.618C91.6674 113.618 91.9782 112.568 93.0959 113.31Z" fill="black"/>
<path opacity="0.1" d="M88.9497 113.31C88.9497 113.31 88.0841 135.334 91.4213 143.728C91.4213 143.728 91.0722 145.517 90.134 143.728C89.1958 141.939 85.9838 123.303 87.5273 113.618C87.5273 113.618 87.838 112.568 88.9497 113.31Z" fill="black"/>
<path d="M90.9956 3.91211H79.8259V101.217H90.9956V3.91211Z" fill="#4E5A86"/>
<path opacity="0.1" d="M93.7214 110.236C93.5957 110.269 93.4661 110.286 93.336 110.286H77.4875C77.4098 110.286 77.3322 110.28 77.2554 110.268L77.3745 109.242C77.4308 108.765 77.6606 108.325 78.0202 108.006C78.3798 107.687 78.8443 107.51 79.3255 107.51H91.6654C92.1501 107.51 92.6177 107.689 92.9782 108.013C93.3387 108.336 93.5667 108.781 93.6185 109.263L93.7214 110.236Z" fill="black"/>
<path opacity="0.1" d="M91.1106 99.2728H79.8259V101.217H91.1106V99.2728Z" fill="black"/>
<path d="M93.2049 99.6434H77.6166C76.7252 99.6434 76.0025 100.365 76.0025 101.255V108.304C76.0025 109.194 76.7252 109.915 77.6166 109.915H93.2049C94.0964 109.915 94.819 109.194 94.819 108.304V101.255C94.819 100.365 94.0964 99.6434 93.2049 99.6434Z" fill="#4E5A86"/>
<path opacity="0.1" d="M82.1825 3.91211H80.5765V96.5896H82.1825V3.91211Z" fill="black"/>
<path opacity="0.1" d="M84.87 3.91211H83.264V96.5896H84.87V3.91211Z" fill="black"/>
<path opacity="0.1" d="M87.5575 3.91211H85.9515V96.5896H87.5575V3.91211Z" fill="black"/>
<path opacity="0.1" d="M90.247 3.91211H88.641V96.5896H90.247V3.91211Z" fill="black"/>
<path d="M91.6937 50.3717C91.6937 50.3717 88.0175 49.2295 88.5744 53.2705C89.1313 57.3115 90.5517 57.5593 90.5517 57.5593C90.5517 57.5593 91.7865 57.2813 91.9418 55.6778C92.0972 54.0743 91.6937 50.3717 91.6937 50.3717Z" fill="#FFA2A2"/>
<g opacity="0.1">
<path d="M175.512 136.454C178.606 141.012 177.617 157.334 177.617 157.334C177.617 157.334 162.081 152.197 158.978 147.638C158.242 146.553 157.728 145.335 157.464 144.052C157.2 142.769 157.192 141.446 157.44 140.16C157.941 137.562 159.455 135.27 161.649 133.787C163.843 132.303 166.537 131.751 169.139 132.251C171.741 132.752 174.037 134.263 175.523 136.454H175.512Z" fill="#F3CC45"/>
<path opacity="0.1" d="M175.512 136.454C178.606 141.012 177.617 157.334 177.617 157.334C177.617 157.334 162.081 152.197 158.978 147.638C158.242 146.553 157.728 145.335 157.464 144.052C157.2 142.769 157.192 141.446 157.44 140.16C157.941 137.562 159.455 135.27 161.649 133.787C163.843 132.303 166.537 131.751 169.139 132.251C171.741 132.752 174.037 134.263 175.523 136.454H175.512Z" fill="black"/>
<path d="M161.706 133.803C161.706 133.803 173.356 142.783 177.677 157.346" stroke="#535461" stroke-miterlimit="10"/>
<path d="M180.611 144.975C180.611 144.975 172.339 143.565 177.988 157.245C177.988 157.245 183.736 155.059 184.184 149.616C184.274 148.557 183.971 147.502 183.333 146.651C182.695 145.8 181.767 145.212 180.724 144.999L180.611 144.975Z" fill="#F3CC45"/>
<path d="M180.734 144.963C180.734 144.963 182.31 152.529 177.998 157.251" stroke="#535461" stroke-miterlimit="10"/>
</g>
<g opacity="0.1">
<path d="M90.0795 122.804C90.0795 122.804 102.504 91.1767 126.258 79.2128C136.229 74.1927 144.429 66.2396 149.39 56.2479C151.736 51.5057 153.642 46.559 155.084 41.4698" stroke="#535461" stroke-width="2" stroke-miterlimit="10"/>
<path d="M170.008 33.841C167.555 36.9977 154.719 41.7115 154.719 41.7115C154.719 41.7115 156.111 28.126 158.564 24.9713C159.139 24.1996 159.863 23.5501 160.693 23.061C161.522 22.5719 162.441 22.253 163.396 22.1229C164.35 21.9927 165.321 22.0541 166.252 22.3033C167.183 22.5525 168.054 22.9845 168.815 23.5741C169.576 24.1638 170.212 24.8991 170.685 25.737C171.158 26.575 171.459 27.4988 171.57 28.4543C171.682 29.4099 171.601 30.3779 171.332 31.3018C171.064 32.2257 170.614 33.0869 170.008 33.835V33.841Z" fill="#F3CC45"/>
<path d="M165.876 58.6512C162.099 59.9686 148.757 56.959 148.757 56.959C148.757 56.959 157.321 46.3126 161.098 44.9951C161.997 44.6819 162.948 44.5483 163.897 44.6021C164.847 44.6559 165.777 44.8959 166.634 45.3085C167.491 45.721 168.258 46.298 168.891 47.0066C169.525 47.7151 170.012 48.5413 170.326 49.438C170.64 50.3347 170.774 51.2843 170.72 52.2325C170.666 53.1808 170.425 54.1092 170.012 54.9647C169.599 55.8203 169.021 56.5861 168.311 57.2187C167.602 57.8512 166.774 58.3379 165.876 58.6512Z" fill="#F3CC45"/>
<path d="M142.24 88.1973C138.311 87.4318 128.318 78.1088 128.318 78.1088C128.318 78.1088 141.096 73.2338 145.022 74.0013C145.955 74.1836 146.844 74.5477 147.637 75.0728C148.429 75.5979 149.111 76.2737 149.642 77.0617C150.173 77.8497 150.543 78.7344 150.732 79.6654C150.92 80.5963 150.923 81.5552 150.741 82.4873C150.558 83.4194 150.194 84.3065 149.668 85.0979C149.142 85.8893 148.465 86.5695 147.676 87.0998C146.886 87.63 146 87.9998 145.068 88.1881C144.136 88.3764 143.175 88.3795 142.242 88.1973H142.24Z" fill="#F3CC45"/>
<path d="M119.311 106.533C115.312 106.44 103.882 98.9384 103.882 98.9384C103.882 98.9384 115.649 91.9784 119.65 92.0711C120.601 92.0933 121.539 92.3024 122.409 92.6863C123.279 93.0702 124.065 93.6215 124.722 94.3086C125.378 94.9958 125.893 95.8054 126.236 96.6912C126.58 97.577 126.745 98.5217 126.723 99.4712C126.701 100.421 126.491 101.357 126.107 102.226C125.722 103.094 125.17 103.879 124.482 104.535C123.794 105.19 122.983 105.704 122.096 106.047C121.208 106.39 120.262 106.555 119.311 106.533Z" fill="#F3CC45"/>
<path d="M136.273 48.2686C136.83 52.223 145.619 62.6861 145.619 62.6861C145.619 62.6861 151.178 50.2085 150.621 46.2521C150.326 44.3762 149.304 42.6913 147.776 41.5608C146.248 40.4304 144.336 39.9452 142.453 40.2099C140.57 40.4746 138.866 41.4679 137.71 42.9756C136.554 44.4833 136.038 46.3844 136.273 48.2686Z" fill="#F3CC45"/>
<path d="M109.727 70.0389C111.444 73.6508 122.957 81.0056 122.957 81.0056C122.957 81.0056 124.523 67.4382 122.804 63.8303C122.395 62.9725 121.822 62.2035 121.116 61.567C120.41 60.9305 119.585 60.4391 118.689 60.1208C117.793 59.8025 116.843 59.6636 115.893 59.712C114.943 59.7603 114.011 59.995 113.152 60.4027C112.293 60.8104 111.523 61.383 110.885 62.0879C110.248 62.7928 109.756 63.6161 109.437 64.5109C109.118 65.4057 108.979 66.3545 109.027 67.3029C109.076 68.2514 109.311 69.1811 109.719 70.0389H109.727Z" fill="#F3CC45"/>
<path d="M86.8412 94.7443C87.9227 98.5899 98.0351 107.788 98.0351 107.788C98.0351 107.788 101.869 94.6799 100.791 90.8343C100.251 89.0115 99.0136 87.4744 97.347 86.5553C95.6805 85.6362 93.7185 85.409 91.8855 85.9228C90.0525 86.4365 88.4956 87.6501 87.5517 89.3009C86.6077 90.9517 86.3525 92.9071 86.8412 94.7443Z" fill="#F3CC45"/>
</g>
<g opacity="0.1">
<path d="M88.0236 65.8387C88.0236 65.8387 92.5128 54.4107 101.094 50.0917C104.705 48.3019 107.637 45.3911 109.451 41.7961C110.299 40.0831 110.988 38.2962 111.509 36.4578" stroke="#535461" stroke-width="2" stroke-miterlimit="10"/>
<path d="M116.904 33.704C116.016 34.8442 111.38 36.5464 111.38 36.5464C111.38 36.5464 111.882 31.6392 112.77 30.503C112.969 30.2029 113.229 29.9471 113.532 29.7516C113.835 29.5562 114.175 29.4252 114.531 29.3668C114.887 29.3085 115.251 29.3241 115.6 29.4127C115.95 29.5013 116.278 29.6609 116.563 29.8816C116.848 30.1023 117.084 30.3794 117.257 30.6955C117.43 31.0115 117.536 31.3598 117.568 31.7185C117.6 32.0773 117.558 32.4388 117.443 32.7804C117.329 33.122 117.146 33.4364 116.904 33.704Z" fill="#F3CC45"/>
<path d="M115.407 42.6664C114.043 43.1418 109.223 42.062 109.223 42.062C109.223 42.062 112.316 38.2144 113.68 37.739C114.01 37.5985 114.366 37.5273 114.725 37.5297C115.084 37.5321 115.439 37.6081 115.767 37.753C116.096 37.8979 116.391 38.1086 116.635 38.372C116.878 38.6354 117.065 38.9459 117.183 39.2844C117.302 39.6228 117.35 39.9819 117.323 40.3395C117.297 40.6971 117.198 41.0455 117.031 41.3631C116.865 41.6807 116.635 41.9608 116.355 42.186C116.076 42.4113 115.753 42.5768 115.407 42.6724V42.6664Z" fill="#F3CC45"/>
<path d="M106.866 53.341C105.454 53.063 101.838 49.6948 101.838 49.6948C101.838 49.6948 106.453 47.9342 107.871 48.2122C108.227 48.2585 108.569 48.3771 108.877 48.5607C109.185 48.7443 109.452 48.989 109.661 49.2797C109.871 49.5704 110.018 49.9009 110.095 50.2507C110.171 50.6005 110.175 50.9623 110.106 51.3137C110.037 51.665 109.896 51.9985 109.693 52.2935C109.49 52.5885 109.228 52.8387 108.924 53.0287C108.62 53.2187 108.28 53.3445 107.925 53.3982C107.571 53.4519 107.209 53.4325 106.862 53.341H106.866Z" fill="#F3CC45"/>
<path d="M98.5839 59.9646C97.1393 59.9303 93.0112 57.2209 93.0112 57.2209C93.0112 57.2209 97.2623 54.7048 98.707 54.7391C99.3711 54.7971 99.9883 55.1054 100.433 55.6015C100.877 56.0975 101.116 56.744 101.101 57.4095C101.085 58.0749 100.816 58.7095 100.349 59.1841C99.881 59.6587 99.2501 59.9378 98.5839 59.9646Z" fill="#F3CC45"/>
<path d="M104.709 38.9114C104.911 40.3397 108.087 44.1208 108.087 44.1208C108.087 44.1208 110.105 39.6124 109.903 38.1842C109.877 37.8266 109.777 37.4781 109.611 37.1605C109.444 36.8428 109.214 36.5627 108.934 36.3374C108.655 36.1122 108.332 35.9467 107.986 35.8512C107.64 35.7556 107.278 35.7321 106.922 35.7819C106.566 35.8318 106.225 35.9541 105.918 36.1412C105.612 36.3283 105.347 36.5763 105.141 36.8697C104.934 37.1631 104.79 37.4957 104.718 37.8469C104.645 38.1981 104.646 38.5604 104.72 38.9114H104.709Z" fill="#F3CC45"/>
<path d="M95.1136 46.7799C95.735 48.0832 99.8974 50.7423 99.8974 50.7423C99.8974 50.7423 100.462 45.8412 99.8409 44.5378C99.5153 43.9593 98.982 43.5257 98.3486 43.3247C97.7152 43.1238 97.029 43.1703 96.4287 43.455C95.8284 43.7398 95.3587 44.2414 95.1146 44.8586C94.8704 45.4758 94.8701 46.1625 95.1136 46.7799Z" fill="#F3CC45"/>
<path d="M86.8534 55.706C87.2448 57.0939 90.8886 60.4178 90.8886 60.4178C90.8886 60.4178 92.2889 55.6818 91.8854 54.2918C91.8081 53.9444 91.6606 53.6163 91.4521 53.3277C91.2436 53.039 90.9783 52.7959 90.6725 52.613C90.3667 52.4301 90.0267 52.3114 89.6734 52.2641C89.3201 52.2168 88.9609 52.2419 88.6176 52.3379C88.2744 52.4339 87.9543 52.5987 87.677 52.8223C87.3996 53.0459 87.1709 53.3236 87.0046 53.6384C86.8384 53.9532 86.7381 54.2986 86.7101 54.6534C86.682 55.0082 86.7266 55.3649 86.8413 55.7019L86.8534 55.706Z" fill="#F3CC45"/>
</g>
<g opacity="0.1">
<path d="M125.832 160.627C125.832 160.627 126.022 148.355 132.541 141.305C135.296 138.366 137.02 134.613 137.456 130.612C137.647 128.71 137.664 126.795 137.506 124.891" stroke="#535461" stroke-width="2" stroke-miterlimit="10"/>
<path d="M141.588 120.425C141.158 121.796 137.413 125.02 137.413 125.02C137.413 125.02 136.162 120.245 136.592 118.867C136.834 118.25 137.301 117.748 137.899 117.46C138.497 117.173 139.182 117.124 139.816 117.321C140.449 117.518 140.985 117.948 141.313 118.523C141.642 119.099 141.74 119.778 141.588 120.423V120.425Z" fill="#F3CC45"/>
<path d="M143.335 129.341C142.223 130.263 137.329 130.934 137.329 130.934C137.329 130.934 138.874 126.248 139.986 125.324C140.524 124.932 141.192 124.76 141.853 124.842C142.514 124.924 143.119 125.254 143.546 125.765C143.972 126.276 144.187 126.93 144.148 127.595C144.109 128.259 143.818 128.883 143.335 129.341Z" fill="#F3CC45"/>
<path d="M139.098 142.326C137.672 142.564 133.108 140.674 133.108 140.674C133.108 140.674 136.812 137.409 138.237 137.171C138.899 137.105 139.562 137.293 140.091 137.697C140.62 138.1 140.975 138.69 141.084 139.346C141.194 140.001 141.05 140.674 140.681 141.228C140.312 141.781 139.746 142.174 139.098 142.326Z" fill="#F3CC45"/>
<path d="M133.651 151.429C132.285 151.903 127.466 150.811 127.466 150.811C127.466 150.811 130.574 146.977 131.938 146.494C132.269 146.351 132.626 146.278 132.987 146.28C133.347 146.281 133.704 146.357 134.034 146.502C134.364 146.647 134.661 146.859 134.905 147.123C135.15 147.388 135.337 147.701 135.455 148.041C135.573 148.381 135.62 148.742 135.592 149.101C135.564 149.46 135.462 149.81 135.293 150.128C135.123 150.446 134.89 150.726 134.607 150.949C134.325 151.173 133.999 151.337 133.651 151.429Z" fill="#F3CC45"/>
<path d="M132.002 129.568C132.692 130.837 136.994 133.265 136.994 133.265C136.994 133.265 137.29 128.341 136.59 127.072C136.234 126.512 135.678 126.108 135.034 125.941C134.39 125.775 133.707 125.858 133.123 126.175C132.539 126.493 132.097 127.019 131.887 127.649C131.677 128.279 131.715 128.965 131.992 129.568H132.002Z" fill="#F3CC45"/>
<path d="M125.782 140.295C126.821 141.303 131.653 142.33 131.653 142.33C131.653 142.33 130.461 137.544 129.421 136.538C128.912 136.119 128.263 135.908 127.604 135.945C126.945 135.983 126.325 136.267 125.867 136.741C125.408 137.215 125.146 137.844 125.132 138.503C125.117 139.162 125.352 139.802 125.79 140.295H125.782Z" fill="#F3CC45"/>
<path d="M121.177 151.548C122.031 152.712 126.625 154.546 126.625 154.546C126.625 154.546 126.26 149.624 125.414 148.46C124.987 147.951 124.381 147.623 123.72 147.543C123.059 147.463 122.392 147.638 121.855 148.03C121.318 148.423 120.951 149.005 120.827 149.658C120.704 150.312 120.834 150.987 121.192 151.548H121.177Z" fill="#F3CC45"/>
</g>
<g opacity="0.1">
<path d="M95.5776 158.697C95.5776 158.697 95.7673 146.423 102.286 139.373C105.041 136.434 106.766 132.682 107.201 128.68C107.393 126.779 107.41 124.865 107.252 122.961" stroke="#535461" stroke-width="2" stroke-miterlimit="10"/>
<path d="M111.333 118.493C110.904 119.871 107.159 123.09 107.159 123.09C107.159 123.09 105.908 118.318 106.338 116.94C106.42 116.589 106.573 116.26 106.789 115.971C107.004 115.683 107.277 115.442 107.589 115.263C107.902 115.084 108.249 114.972 108.607 114.933C108.965 114.894 109.327 114.929 109.671 115.036C110.015 115.143 110.334 115.32 110.606 115.555C110.879 115.79 111.1 116.079 111.256 116.403C111.412 116.727 111.5 117.08 111.513 117.44C111.526 117.799 111.465 118.158 111.333 118.493Z" fill="#F3CC45"/>
<path d="M113.085 127.409C111.973 128.333 107.078 129.002 107.078 129.002C107.078 129.002 108.624 124.317 109.735 123.394C110.274 123.006 110.94 122.836 111.599 122.919C112.258 123.002 112.861 123.332 113.286 123.841C113.711 124.351 113.927 125.003 113.889 125.665C113.852 126.327 113.564 126.95 113.085 127.409Z" fill="#F3CC45"/>
<path d="M108.834 140.396C107.407 140.632 102.843 138.742 102.843 138.742C102.843 138.742 106.548 135.477 107.972 135.241C108.321 135.159 108.684 135.149 109.037 135.213C109.391 135.276 109.727 135.411 110.026 135.61C110.325 135.809 110.58 136.066 110.775 136.367C110.97 136.668 111.101 137.006 111.16 137.359C111.219 137.713 111.205 138.075 111.118 138.422C111.031 138.77 110.874 139.096 110.656 139.381C110.438 139.666 110.164 139.903 109.85 140.077C109.537 140.252 109.191 140.36 108.834 140.396Z" fill="#F3CC45"/>
<path d="M103.404 149.497C102.038 149.973 97.22 148.879 97.22 148.879C97.22 148.879 100.319 145.037 101.683 144.56C102.014 144.42 102.369 144.349 102.729 144.352C103.088 144.354 103.442 144.431 103.771 144.576C104.099 144.721 104.394 144.932 104.637 145.196C104.881 145.46 105.067 145.771 105.185 146.109C105.303 146.448 105.351 146.807 105.324 147.165C105.297 147.522 105.197 147.871 105.03 148.188C104.863 148.506 104.633 148.785 104.353 149.01C104.073 149.235 103.75 149.4 103.404 149.495V149.497Z" fill="#F3CC45"/>
<path d="M101.748 127.638C102.438 128.908 106.739 131.335 106.739 131.335C106.739 131.335 107.036 126.412 106.336 125.143C106.191 124.809 105.978 124.509 105.71 124.262C105.443 124.016 105.127 123.827 104.783 123.709C104.438 123.591 104.073 123.545 103.71 123.576C103.347 123.606 102.995 123.712 102.675 123.886C102.355 124.06 102.075 124.298 101.853 124.586C101.63 124.874 101.47 125.205 101.383 125.558C101.296 125.911 101.283 126.278 101.346 126.637C101.409 126.995 101.546 127.336 101.748 127.638Z" fill="#F3CC45"/>
<path d="M95.5312 138.363C96.5703 139.371 101.403 140.4 101.403 140.4C101.403 140.4 100.21 135.612 99.1711 134.608C98.9318 134.336 98.6386 134.117 98.3101 133.964C97.9815 133.811 97.6248 133.727 97.2623 133.719C96.8998 133.71 96.5395 133.777 96.2041 133.914C95.8687 134.052 95.5655 134.257 95.3136 134.518C95.0617 134.778 94.8667 135.088 94.7407 135.427C94.6148 135.767 94.5607 136.129 94.5819 136.49C94.6032 136.851 94.6992 137.204 94.864 137.527C95.0288 137.849 95.2587 138.134 95.5393 138.363H95.5312Z" fill="#F3CC45"/>
<path d="M90.9229 149.616C91.7764 150.781 96.3706 152.614 96.3706 152.614C96.3706 152.614 96.0054 147.692 95.16 146.528C94.9674 146.226 94.7146 145.966 94.4174 145.765C94.1202 145.564 93.7848 145.426 93.432 145.36C93.0792 145.293 92.7165 145.3 92.3664 145.379C92.0163 145.458 91.6863 145.609 91.3967 145.82C91.107 146.032 90.8641 146.301 90.6828 146.61C90.5014 146.92 90.3857 147.263 90.3426 147.619C90.2995 147.975 90.33 148.336 90.4323 148.679C90.5345 149.023 90.7063 149.342 90.937 149.616H90.9229Z" fill="#F3CC45"/>
</g>
<path d="M81.7972 15.6061C82.2007 16.847 81.1071 21.166 81.1071 21.166C81.1071 21.166 77.7014 18.2914 77.3019 17.0444C77.1908 16.7456 77.1416 16.4274 77.1571 16.109C77.1726 15.7906 77.2526 15.4787 77.3923 15.192C77.5319 14.9054 77.7283 14.65 77.9695 14.4412C78.2108 14.2325 78.4919 14.0747 78.7959 13.9774C79.0999 13.8801 79.4206 13.8454 79.7384 13.8753C80.0562 13.9051 80.3647 13.999 80.6452 14.1512C80.9257 14.3034 81.1724 14.5108 81.3704 14.7609C81.5684 15.0109 81.7136 15.2985 81.7972 15.6061Z" fill="#F3CC45"/>
<path d="M65.0508 43.2324C65.4543 44.4733 64.3607 48.7923 64.3607 48.7923C64.3607 48.7923 60.9509 45.9177 60.5514 44.6768C60.4564 44.3818 60.4206 44.071 60.4459 43.7622C60.4712 43.4534 60.5571 43.1526 60.6989 42.877C60.8406 42.6014 61.0353 42.3563 61.2719 42.1558C61.5085 41.9553 61.7823 41.8033 62.0778 41.7085C62.3732 41.6136 62.6844 41.5778 62.9937 41.6031C63.303 41.6283 63.6043 41.7142 63.8804 41.8557C64.1564 41.9972 64.4019 42.1916 64.6027 42.4278C64.8035 42.664 64.9558 42.9374 65.0508 43.2324Z" fill="#F3CC45"/>
<path d="M100.331 31.055C100.735 32.2959 99.6392 36.6149 99.6392 36.6149C99.6392 36.6149 96.2314 33.7423 95.8319 32.5014C95.6398 31.9057 95.6925 31.2582 95.9786 30.7013C96.2647 30.1445 96.7606 29.7239 97.3572 29.5321C97.9539 29.3403 98.6024 29.393 99.1601 29.6786C99.7179 29.9642 100.139 30.4593 100.331 31.055Z" fill="#F3CC45"/>
<path d="M118.583 51.9309C118.986 53.1698 117.893 57.4888 117.893 57.4888C117.893 57.4888 114.483 54.6162 114.079 53.3753C113.977 53.0785 113.935 52.7642 113.955 52.4509C113.976 52.1376 114.059 51.8316 114.2 51.5508C114.34 51.27 114.536 51.02 114.774 50.8156C115.013 50.6111 115.29 50.4563 115.589 50.3601C115.889 50.264 116.204 50.2285 116.517 50.2557C116.831 50.2829 117.135 50.3723 117.414 50.5186C117.692 50.6649 117.938 50.8651 118.138 51.1076C118.338 51.3502 118.487 51.63 118.577 51.9309H118.583Z" fill="#F3CC45"/>
<path d="M106.267 17.6487C105.603 18.7708 101.645 20.8235 101.645 20.8235C101.645 20.8235 101.534 16.3716 102.197 15.2495C102.516 14.7107 103.036 14.3203 103.643 14.1643C104.25 14.0083 104.894 14.0994 105.434 14.4175C105.973 14.7357 106.364 15.2549 106.521 15.8608C106.677 16.4668 106.586 17.1099 106.267 17.6487Z" fill="#F3CC45"/>
<path d="M150.907 14.2866C150.244 15.4087 146.285 17.4614 146.285 17.4614C146.285 17.4614 146.176 13.0074 146.84 11.8874C146.994 11.6141 147.202 11.3742 147.45 11.182C147.698 10.9897 147.983 10.8488 148.286 10.7676C148.59 10.6863 148.906 10.6664 149.218 10.7089C149.529 10.7514 149.829 10.8555 150.1 11.0151C150.37 11.1747 150.606 11.3866 150.794 11.6384C150.981 11.8901 151.117 12.1768 151.192 12.4814C151.267 12.7861 151.281 13.1027 151.232 13.4126C151.183 13.7226 151.073 14.0197 150.907 14.2866Z" fill="#F3CC45"/>
<path d="M61.0155 22.9327C59.7524 23.261 55.4952 21.9254 55.4952 21.9254C55.4952 21.9254 58.564 18.6922 59.8271 18.3639C60.1275 18.286 60.4404 18.2679 60.7479 18.3107C61.0553 18.3535 61.3513 18.4564 61.619 18.6135C61.8866 18.7705 62.1207 18.9786 62.3077 19.226C62.4948 19.4733 62.6312 19.755 62.7093 20.055C62.7873 20.355 62.8054 20.6674 62.7625 20.9744C62.7196 21.2813 62.6166 21.5769 62.4593 21.8441C62.302 22.1113 62.0936 22.345 61.8458 22.5317C61.5981 22.7185 61.3159 22.8548 61.0155 22.9327Z" fill="#F3CC45"/>
<path d="M101.917 73.9127C101.253 75.0347 97.2946 77.0875 97.2946 77.0875C97.2946 77.0875 97.1837 72.6355 97.8475 71.5135C98.0052 71.2467 98.2141 71.0135 98.4621 70.8273C98.7102 70.6411 98.9925 70.5055 99.293 70.4283C99.5935 70.351 99.9064 70.3336 100.214 70.3771C100.521 70.4205 100.817 70.524 101.084 70.6815C101.351 70.839 101.584 71.0476 101.771 71.2952C101.957 71.5429 102.093 71.8247 102.171 72.1248C102.248 72.4248 102.265 72.7372 102.222 73.0439C102.178 73.3507 102.075 73.6459 101.917 73.9127Z" fill="#F3CC45"/>
</g>
<defs>
<linearGradient id="paint0_linear_772_237" x1="43.2844" y1="159.608" x2="43.2844" y2="32.8982" gradientUnits="userSpaceOnUse">
<stop stop-color="#808080" stop-opacity="0.25"/>
<stop offset="0.54" stop-color="#808080" stop-opacity="0.12"/>
<stop offset="1" stop-color="#808080" stop-opacity="0.1"/>
</linearGradient>
<clipPath id="clip0_772_237">
<rect width="210" height="161" fill="white"/>
</clipPath>
</defs>
</svg>
